<svg width="27" height="37" viewBox="0 0 27 37" fill="none" xmlns="http://www.w3.org/2000/svg">
<path d="M17.1214 16.5555C17.1214 16.8119 17.0454 17.0626 16.9029 17.2757C16.7605 17.4889 16.558 17.6551 16.3212 17.7532C16.0843 17.8513 15.8237 17.8769 15.5722 17.8269C15.3208 17.7769 15.0898 17.6535 14.9085 17.4722C14.7272 17.2909 14.6037 17.0599 14.5537 16.8084C14.5037 16.557 14.5294 16.2963 14.6275 16.0595C14.7256 15.8226 14.8917 15.6202 15.1049 15.4777C15.3181 15.3353 15.5687 15.2592 15.8251 15.2592C16.1689 15.2592 16.4986 15.3958 16.7417 15.6389C16.9848 15.882 17.1214 16.2117 17.1214 16.5555Z" fill="black"/>
<path d="M11.9362 16.5555C11.9362 16.8119 11.8602 17.0626 11.7178 17.2757C11.5753 17.4889 11.3729 17.6551 11.136 17.7532C10.8991 17.8513 10.6385 17.8769 10.387 17.8269C10.1356 17.7769 9.9046 17.6535 9.72331 17.4722C9.54201 17.2909 9.41855 17.0599 9.36854 16.8084C9.31852 16.557 9.34419 16.2963 9.4423 16.0595C9.54042 15.8226 9.70657 15.6202 9.91974 15.4777C10.1329 15.3353 10.3835 15.2592 10.6399 15.2592C10.9837 15.2592 11.3134 15.3958 11.5565 15.6389C11.7996 15.882 11.9362 16.2117 11.9362 16.5555Z" fill="black"/>
<path d="M8.88098 5.79622C10.2728 5.16687 11.7877 4.85683 13.3148 4.88881C14.7821 4.86034 16.2387 5.14417 17.5879 5.72149" stroke="#2B124C" stroke-width="1.5" stroke-linecap="round" stroke-linejoin="round"/>
<path d="M1 36V34.0555C1 30.8186 4.2458 28.2222 7.48148 28.2222C11.3704 31.4629 15.2593 31.4629 19.1481 28.2222C22.3851 28.2222 25.6296 30.8186 25.6296 34.0555V36" stroke="#2B124C" stroke-width="1.5" stroke-linecap="round" stroke-linejoin="round"/>
<path d="M17.1214 16.5555C17.1214 16.8119 17.0454 17.0626 16.9029 17.2757C16.7605 17.4889 16.558 17.6551 16.3212 17.7532C16.0843 17.8513 15.8237 17.8769 15.5722 17.8269C15.3208 17.7769 15.0898 17.6535 14.9085 17.4722C14.7272 17.2909 14.6037 17.0599 14.5537 16.8084C14.5037 16.557 14.5294 16.2963 14.6275 16.0595C14.7256 15.8226 14.8917 15.6202 15.1049 15.4777C15.3181 15.3353 15.5687 15.2592 15.8251 15.2592C16.1689 15.2592 16.4986 15.3958 16.7417 15.6389C16.9848 15.882 17.1214 16.2117 17.1214 16.5555Z" fill="black"/>
<path d="M11.9362 16.5555C11.9362 16.8119 11.8602 17.0626 11.7178 17.2757C11.5753 17.4889 11.3729 17.6551 11.136 17.7532C10.8991 17.8513 10.6385 17.8769 10.387 17.8269C10.1356 17.7769 9.9046 17.6535 9.72331 17.4722C9.54201 17.2909 9.41855 17.0599 9.36854 16.8084C9.31852 16.557 9.34419 16.2963 9.4423 16.0595C9.54042 15.8226 9.70657 15.6202 9.91974 15.4777C10.1329 15.3353 10.3835 15.2592 10.6399 15.2592C10.9837 15.2592 11.3134 15.3958 11.5565 15.6389C11.7996 15.882 11.9362 16.2117 11.9362 16.5555Z" fill="black"/>
<path d="M13.3148 8.77744C12.7631 8.8971 12.2283 9.08417 11.7223 9.33445" stroke="#2B124C" stroke-width="1.5" stroke-linecap="round" stroke-linejoin="round"/>
<path d="M6.83335 14.6811C6.47498 16.1474 6.24435 17.642 6.14404 19.1482C6.14404 22.3889 9.34363 26.2778 13.2737 26.2778C17.1214 26.2778 20.4445 22.3889 20.4445 19.1482C20.3736 17.6416 20.1566 16.1456 19.7963 14.6811" stroke="#2B124C" stroke-width="1.5" stroke-linecap="round" stroke-linejoin="round"/>
<path d="M11.3704 21.7408C11.9717 22.0504 12.6384 22.2119 13.3148 22.2119C13.9912 22.2119 14.6579 22.0504 15.2593 21.7408" stroke="#2B124C" stroke-width="1.5" stroke-linecap="round" stroke-linejoin="round"/>
<path d="M1 1C1 2.94444 1.64815 7.48148 1.64815 7.48148V15.2593C2.2963 17.8519 4.24074 17.8519 4.24074 17.8519C4.24074 13.963 6.18519 10.0741 6.18519 10.0741L8.77778 12.6667C9.42593 13.3148 10.7222 12.6667 10.0741 11.3704C9.28056 10.0283 8.4151 8.73013 7.48148 7.48148C6.86533 6.55568 5.95018 5.86931 4.88889 5.53704V1" stroke="#2B124C" stroke-width="1.5" stroke-linecap="round" stroke-linejoin="round"/>
<path d="M25.8069 1C25.8069 2.94444 25.1587 7.48148 25.1587 7.48148V15.2593C24.5106 17.8519 22.5661 17.8519 22.5661 17.8519C22.5661 13.963 20.6217 10.0741 20.6217 10.0741L18.0291 12.6667C17.3809 13.3148 16.0847 12.6667 16.7328 11.3704C17.5263 10.0283 18.3918 8.73013 19.3254 7.48148C19.9416 6.55569 20.8567 5.86933 21.918 5.53704V1" stroke="#2B124C" stroke-width="1.5" stroke-linecap="round" stroke-linejoin="round"/>
<path d="M13.3148 8.77713C13.8397 8.83576 14.3511 8.982 14.8276 9.20977" stroke="#2B124C" stroke-width="1.5" stroke-linecap="round" stroke-linejoin="round"/>
<path d="M24.8406 19.1462C25.3718 20.3755 25.565 21.7244 25.4002 23.0534C25.2354 24.3824 24.7186 25.6433 23.9032 26.7056" stroke="#2B124C" stroke-width="1.5" stroke-linecap="round" stroke-linejoin="round"/>
<path d="M2.1466 26.8367C0.201314 23.7765 1.1281 21.4041 2.17428 19.0221" stroke="#2B124C" stroke-width="1.5" stroke-linecap="round" stroke-linejoin="round"/>
</svg>
