<svg width="43" height="27" viewBox="0 0 43 27" fill="none" xmlns="http://www.w3.org/2000/svg">
<path d="M20.7996 26.0001C22.8495 26.0001 24.5113 24.3383 24.5113 22.2884C24.5113 20.2385 22.8495 18.5768 20.7996 18.5768C18.7498 18.5768 17.088 20.2385 17.088 22.2884C17.088 24.3383 18.7498 26.0001 20.7996 26.0001Z" stroke="#2B124C" stroke-width="2" stroke-miterlimit="10"/>
<path d="M14.6693 20.7915C15.124 20.7452 15.5694 20.6988 16.024 20.6524C16.5251 20.5967 17.0262 20.5503 17.5365 20.5132M3.80342 12.4311C3.78486 10.9649 3.80342 9.4989 3.84054 8.02349C3.88367 7.0297 4.12888 6.05513 4.56119 5.15927C4.99351 4.2634 5.60385 3.46504 6.35498 2.81291C7.10611 2.16077 7.98225 1.66856 8.92994 1.3663C9.87763 1.06404 10.877 0.958088 11.867 1.0549C16.4372 1.61875 21.0435 1.83588 25.6465 1.70445C27.7993 1.61166 29.9427 1.37968 32.0769 1.13842C34.083 0.763153 36.157 1.15738 37.8855 2.24257C38.8784 2.88534 39.6965 3.76423 40.2665 4.80061C40.8365 5.83698 41.1407 6.9985 41.1518 8.18124C41.1797 9.14628 41.1982 13.7023 41.0312 14.9735C40.7458 16.7646 39.7972 18.3829 38.374 19.5071C36.9507 20.6313 35.1567 21.1792 33.3482 21.0421C31.1398 20.8658 28.9313 20.5781 26.7137 20.4668C25.8043 20.4204 24.8949 20.3925 23.9856 20.374" stroke="#2B124C" stroke-width="2" stroke-miterlimit="10"/>
<path d="M36.3634 12.4699C37.007 12.4699 37.5287 11.9481 37.5287 11.3046C37.5287 10.661 37.007 10.1393 36.3634 10.1393C35.7198 10.1393 35.1981 10.661 35.1981 11.3046C35.1981 11.9481 35.7198 12.4699 36.3634 12.4699Z" fill="black"/>
<path d="M14.7781 13.3738C15.4216 13.3738 15.9434 12.8521 15.9434 12.2085C15.9434 11.5649 15.4216 11.0432 14.7781 11.0432C14.1345 11.0432 13.6128 11.5649 13.6128 12.2085C13.6128 12.8521 14.1345 13.3738 14.7781 13.3738Z" fill="black"/>
<path d="M20.3732 7.93836C21.0167 7.93836 21.5385 7.41664 21.5385 6.77307C21.5385 6.1295 21.0167 5.60779 20.3732 5.60779C19.7296 5.60779 19.2079 6.1295 19.2079 6.77307C19.2079 7.41664 19.7296 7.93836 20.3732 7.93836Z" fill="black"/>
<path d="M30.9902 17.39C31.6338 17.39 32.1555 16.8683 32.1555 16.2247C32.1555 15.5812 31.6338 15.0594 30.9902 15.0594C30.3467 15.0594 29.825 15.5812 29.825 16.2247C29.825 16.8683 30.3467 17.39 30.9902 17.39Z" fill="black"/>
<path d="M29.2517 9.37237C30.1264 9.37237 30.8355 8.66327 30.8355 7.78854C30.8355 6.91382 30.1264 6.20471 29.2517 6.20471C28.377 6.20471 27.6678 6.91382 27.6678 7.78854C27.6678 8.66327 28.377 9.37237 29.2517 9.37237Z" stroke="#2B124C" stroke-width="2" stroke-miterlimit="10"/>
<path d="M10.6926 8.35674C11.5673 8.35674 12.2764 7.64764 12.2764 6.77292C12.2764 5.89819 11.5673 5.18909 10.6926 5.18909C9.81787 5.18909 9.10876 5.89819 9.10876 6.77292C9.10876 7.64764 9.81787 8.35674 10.6926 8.35674Z" stroke="#2B124C" stroke-width="2" stroke-miterlimit="10"/>
<path d="M21.9569 16.3007C22.8316 16.3007 23.5407 15.5916 23.5407 14.7169C23.5407 13.8422 22.8316 13.1331 21.9569 13.1331C21.0822 13.1331 20.373 13.8422 20.373 14.7169C20.373 15.5916 21.0822 16.3007 21.9569 16.3007Z" stroke="#2B124C" stroke-width="2" stroke-miterlimit="10"/>
<path d="M8.91543 15.7149C8.74146 15.7677 8.57079 15.8308 8.40433 15.9039C8.40531 15.7464 8.39615 15.5891 8.3769 15.4328C8.26102 14.7079 7.93278 14.0337 7.43369 13.4953C6.9346 12.9569 6.28708 12.5787 5.573 12.4083C4.85893 12.238 4.11037 12.2832 3.422 12.5383C2.73363 12.7934 2.13636 13.2468 1.70572 13.8414C1.27508 14.4359 1.03041 15.1448 1.00265 15.8784C0.974899 16.612 1.1653 17.3373 1.54979 17.9627C1.93427 18.5881 2.49557 19.0854 3.16269 19.3918C3.82982 19.6981 4.57282 19.7998 5.29772 19.6839C5.36284 19.6736 5.42031 19.6482 5.48372 19.6346C5.36286 20.6184 5.56059 21.615 6.04786 22.4781C6.53513 23.3413 7.28629 24.0254 8.19104 24.4302C9.09579 24.835 10.1065 24.939 11.0747 24.727C12.043 24.5151 12.9177 23.9983 13.5706 23.2526C14.2235 22.5068 14.6201 21.5714 14.7022 20.5836C14.7843 19.5959 14.5476 18.6078 14.0268 17.7645C13.506 16.9212 12.7285 16.2671 11.8085 15.8982C10.8886 15.5293 9.87459 15.465 8.91543 15.7149Z" stroke="#2B124C" stroke-width="2" stroke-linecap="round" stroke-linejoin="round"/>
</svg>
