<svg width="30" height="28" viewBox="0 0 30 28" fill="none" xmlns="http://www.w3.org/2000/svg">
<path d="M22.6468 27.6053C21.0671 27.6053 19.4035 27.2698 17.6841 26.6236C16.0065 25.9899 14.315 25.12 12.6654 24.0638C11.0298 22.9951 9.45014 21.8022 7.95433 20.4975C6.47251 19.1679 5.13048 17.7637 3.94222 16.3223C2.73998 14.8311 1.7754 13.34 1.0904 11.8985C0.363467 10.3577 0 8.86652 0 7.46236C0 6.49311 0.195713 5.57357 0.573159 4.71616C0.964585 3.8339 1.59366 3.01377 2.44641 2.30547C3.52283 1.36108 4.75303 0.888885 6.0671 0.888885C6.6123 0.888885 7.17148 1.00072 7.64678 1.19954C8.19199 1.42321 8.65331 1.75872 8.98882 2.20606L12.2321 6.26944C12.5256 6.6298 12.7493 6.97773 12.9031 7.32567C13.0848 7.69845 13.1827 8.07124 13.1827 8.4316C13.1827 8.9038 13.0289 9.36357 12.7353 9.79849C12.5256 10.134 12.2041 10.4944 11.7987 10.8547L10.8481 11.737C10.8621 11.7743 10.876 11.7991 10.89 11.824C11.0578 12.0849 11.3933 12.5323 12.0363 13.2033C12.7213 13.8991 13.3644 14.5329 14.0075 15.1169C14.8322 15.8376 15.5172 16.4092 16.1603 16.8814C16.9571 17.4779 17.4744 17.7761 17.7819 17.9128L17.754 17.9749L18.7745 17.0803C19.2078 16.695 19.6272 16.4092 20.0326 16.2228C20.8015 15.8004 21.7801 15.7258 22.7586 16.0862C23.1221 16.2228 23.5135 16.4092 23.9329 16.6702L28.5741 19.6028C29.0913 19.9134 29.4688 20.3111 29.6925 20.7833C29.9021 21.2555 30 21.6904 30 22.1253C30 22.7218 29.8462 23.3182 29.5527 23.8774C29.2591 24.4366 28.8956 24.9212 28.4343 25.3685C27.6375 26.1514 26.7707 26.7106 25.7642 27.0709C24.7996 27.4189 23.7512 27.6053 22.6468 27.6053ZM6.0671 2.75282C5.29823 2.75282 4.58528 3.05105 3.90028 3.64751C3.25722 4.18183 2.80988 4.76587 2.53029 5.3996C2.23672 6.04577 2.09692 6.72921 2.09692 7.46236C2.09692 8.618 2.40447 9.87304 3.01957 11.1654C3.64865 12.4826 4.52936 13.8494 5.64772 15.2163C6.76608 16.5832 8.03821 17.9128 9.43616 19.1679C10.8341 20.3981 12.3439 21.5413 13.8956 22.5478C15.4054 23.5295 16.9571 24.3247 18.4949 24.8963C20.8854 25.8035 23.1221 26.0147 24.9674 25.3313C25.6803 25.0703 26.3094 24.6727 26.8826 24.1011C27.2041 23.7904 27.4557 23.4549 27.6654 23.0573C27.8332 22.7466 27.9171 22.4235 27.9171 22.1004C27.9171 21.9016 27.8751 21.7028 27.7633 21.4791C27.7213 21.4046 27.6375 21.2679 27.3719 21.1063L22.7307 18.1738C22.4511 17.9998 22.1994 17.8755 21.9618 17.7885C21.6542 17.6767 21.5284 17.5649 21.0531 17.8258C20.7735 17.9501 20.5219 18.1365 20.2423 18.385L19.1799 19.317C18.6347 19.7892 17.7959 19.901 17.1528 19.6898L16.7754 19.5406C16.2022 19.2673 15.5312 18.8448 14.7903 18.2856C14.1193 17.7761 13.3924 17.1797 12.5116 16.4092C11.8267 15.7879 11.1417 15.1293 10.4287 14.3962C9.77167 13.7127 9.29637 13.1287 9.0028 12.6441L8.83504 12.2713C8.75117 11.9855 8.72321 11.824 8.72321 11.65C8.72321 11.2026 8.90494 10.805 9.25443 10.4944L10.3029 9.52511C10.5825 9.27658 10.7922 9.04049 10.932 8.82924C11.0438 8.6677 11.0857 8.53101 11.0857 8.40675C11.0857 8.30734 11.0438 8.15823 10.9739 8.00911C10.876 7.81029 10.7223 7.58662 10.5266 7.35052L7.28332 3.27472C7.14352 3.10075 6.97577 2.97649 6.76608 2.88951C6.5424 2.80252 6.30475 2.75282 6.0671 2.75282ZM17.754 17.9874L17.5303 18.8323L17.9077 17.9625C17.8378 17.9501 17.7819 17.9625 17.754 17.9874Z" fill="#2B124C"/>
</svg>
