<svg width="40" height="40" viewBox="0 0 40 40" fill="none" xmlns="http://www.w3.org/2000/svg">
<path d="M1.40436 40C1.03236 40 0.678895 39.8512 0.418491 39.5909C0.0650842 39.2376 -0.0836257 38.7169 0.0465767 38.2334L2.39024 29.4746C0.82781 26.5737 0.00933877 23.3008 0.00933877 19.9907C0.00933877 8.96329 8.9747 0 20.0046 0C31.0346 0 40 8.96329 40 19.9907C40 31.0181 31.0346 39.9814 20.0046 39.9814C16.638 39.9814 13.3458 39.1446 10.407 37.5453L1.77639 39.9442C1.64619 39.9814 1.53457 40 1.40436 40ZM10.5929 34.6629C10.8347 34.6629 11.0766 34.7375 11.2998 34.8491C13.9224 36.3926 16.9356 37.2106 20.0046 37.2106C29.4908 37.2106 37.2099 29.4932 37.2099 20.0093C37.2099 10.5254 29.4908 2.80802 20.0046 2.80802C10.5185 2.80802 2.79939 10.5254 2.79939 20.0093C2.79939 23.0404 3.59919 25.9972 5.10581 28.6006C5.29182 28.9168 5.34766 29.3073 5.25465 29.6606L3.39462 36.6155L10.2395 34.7187C10.3511 34.6815 10.4813 34.6629 10.5929 34.6629Z" fill="#DFB6B2"/>
<path d="M25.1014 30.7196C23.9482 30.7196 22.7577 30.4593 21.5115 29.92C20.3397 29.4179 19.1679 28.7485 18.0332 27.9116C16.9172 27.0934 15.8199 26.1636 14.8155 25.1594C13.8111 24.1366 12.881 23.0581 12.0626 21.9423C11.2256 20.7708 10.5559 19.6178 10.0723 18.4835C9.55152 17.2561 9.29114 16.0474 9.29114 14.8944C9.29114 14.0762 9.4399 13.2952 9.71891 12.5699C10.0165 11.8075 10.5001 11.1194 11.1326 10.5243C12.323 9.35278 14.0343 8.92511 15.3921 9.57597C15.8571 9.78053 16.2477 10.1153 16.5454 10.5616L18.7029 13.5927C18.9261 13.8902 19.0936 14.2063 19.2239 14.5225C19.3727 14.8944 19.4657 15.2664 19.4657 15.6197C19.4657 16.1032 19.3353 16.5867 19.0749 17.0144C18.9075 17.2933 18.6657 17.628 18.3494 17.9442L18.1076 18.2045C18.2192 18.3533 18.3494 18.5392 18.5541 18.7624C18.9447 19.2087 19.3725 19.6922 19.8375 20.1571C20.3025 20.6034 20.7675 21.0497 21.2325 21.4402C21.4557 21.6262 21.6419 21.7749 21.7907 21.8679L22.0509 21.6076C22.3857 21.2729 22.7207 21.0125 23.0555 20.8451C23.6693 20.4546 24.6178 20.3616 25.4548 20.715C25.7524 20.8266 26.05 20.9939 26.3662 21.2171L29.4726 23.4114C29.9004 23.7089 30.2351 24.118 30.4583 24.5829C30.6443 25.0478 30.7189 25.457 30.7189 25.8847C30.7189 26.4425 30.5885 26.9818 30.3467 27.5025C30.1049 27.986 29.8259 28.4137 29.4911 28.8042C28.8958 29.4551 28.2078 29.9386 27.4638 30.2547C26.7198 30.5709 25.9198 30.7196 25.1014 30.7196ZM14.0342 12.0864C13.9226 12.0864 13.5507 12.0864 13.0857 12.5513C12.7323 12.886 12.4904 13.2394 12.323 13.6299C12.1556 14.0204 12.0812 14.4667 12.0812 14.913C12.0812 15.6941 12.2672 16.5309 12.6392 17.4235C13.0298 18.3533 13.6065 19.3389 14.3133 20.3245C15.0387 21.31 15.8571 22.2956 16.7686 23.2068C17.68 24.0995 18.6471 24.9363 19.6515 25.6801C20.6187 26.3868 21.6047 26.9446 22.5905 27.3724C24.0041 27.986 25.306 28.1348 26.3662 27.6885C26.7382 27.5397 27.073 27.2794 27.4078 26.9446C27.5752 26.7587 27.7056 26.5727 27.8172 26.331C27.873 26.2008 27.91 26.052 27.91 25.9219C27.91 25.8847 27.91 25.8289 27.8542 25.7173L24.748 23.5602C24.6178 23.4672 24.4876 23.3928 24.376 23.3556C24.3016 23.3928 24.1901 23.4486 23.9855 23.6531L23.2787 24.3598C22.7393 24.8991 21.8837 25.0478 21.1955 24.8061L20.8607 24.6573C20.4329 24.4342 19.9491 24.0995 19.4097 23.6346C18.8889 23.1882 18.3868 22.7233 17.8474 22.2027C17.3266 21.6634 16.8616 21.1613 16.4152 20.6406C15.9315 20.0641 15.5967 19.5992 15.3735 19.2087L15.1689 18.7252C15.1131 18.5392 15.0944 18.3347 15.0944 18.1487C15.0944 17.628 15.2805 17.1631 15.6339 16.7912L16.3408 16.066C16.5454 15.8614 16.6198 15.7499 16.657 15.6755C16.6012 15.5453 16.5268 15.4337 16.4338 15.3035L14.2574 12.2352L14.0342 12.0864Z" fill="#DFB6B2"/>
</svg>
