<svg width="15" height="15" viewBox="0 0 15 15" fill="none" xmlns="http://www.w3.org/2000/svg">
<path d="M8.80323 1.07703L10.1252 3.72095C10.3033 4.0866 10.7815 4.4335 11.1846 4.5085L13.5754 4.90228C15.1036 5.15542 15.4599 6.26179 14.363 7.36811L12.4972 9.23385C12.1878 9.54325 12.0097 10.1527 12.1128 10.5933L12.6472 12.8997C13.0691 14.7186 12.0941 15.4311 10.4908 14.4748L8.25007 13.1435C7.84692 12.8997 7.17188 12.8997 6.76873 13.1435L4.52796 14.4748C2.92468 15.4218 1.94962 14.7186 2.37152 12.8997L2.90593 10.5933C2.99031 10.1433 2.81217 9.53387 2.50278 9.22448L0.637029 7.35873C-0.459917 6.26179 -0.103644 5.15542 1.42458 4.8929L3.81541 4.49912C4.21856 4.43349 4.69672 4.07722 4.87485 3.71157L6.19681 1.06765C6.91874 -0.357442 8.08131 -0.357442 8.80323 1.07703Z" fill="#FFE221"/>
</svg>
