<svg width="42" height="30" viewBox="0 0 42 30" fill="none" xmlns="http://www.w3.org/2000/svg">
<path d="M9.45349 0C5.64204 0 2.49548 2.97207 2.49548 6.66667V7.01172C1.31274 7.52011 0.409112 8.5653 0.111038 9.84212C-0.370062 11.9039 0.765009 13.7805 2.49548 14.5638V20.8333C2.49548 22.8066 3.48755 24.5538 4.99548 25.6104V29.1667C4.9955 29.3877 5.08331 29.5996 5.23958 29.7559C5.39586 29.9122 5.60781 30 5.82881 30H9.16214C9.38315 30 9.5951 29.9122 9.75138 29.7559C9.90765 29.5996 9.99546 29.3877 9.99548 29.1667V26.6667H31.6621V29.1667C31.6622 29.3877 31.75 29.5996 31.9062 29.7559C32.0625 29.9122 32.2745 30 32.4955 30H35.8288C36.0498 30 36.2618 29.9122 36.418 29.7559C36.5743 29.5996 36.6621 29.3877 36.6621 29.1667V25.6104C38.1701 24.5538 39.1621 22.8066 39.1621 20.8333V14.5785C40.6164 13.9292 41.6621 12.524 41.6621 10.8333C41.6621 9.13567 40.6267 7.66929 39.1621 7.02148V6.66667C39.1621 2.97207 36.0156 0 32.2041 0H9.45349ZM9.45349 1.66667H32.2041C35.1577 1.66667 37.4955 3.91793 37.4955 6.66667V6.66829C37.361 6.66824 37.2255 6.67311 37.0886 6.6862C34.9019 6.89436 33.3288 8.82963 33.3288 10.9766V15H23.3288C22.3312 15 21.4414 15.4552 20.8288 16.1572C20.2162 15.4552 19.3264 15 18.3288 15H8.32881V10.8333C8.32881 8.54374 6.43308 6.68063 4.16215 6.66992V6.66667C4.16215 3.91793 6.49994 1.66667 9.45349 1.66667ZM10.8288 4.16667C10.6078 4.16667 10.3958 4.25446 10.2396 4.41074C10.0833 4.56702 9.99548 4.77899 9.99548 5C9.99548 5.22101 10.0833 5.43297 10.2396 5.58926C10.3958 5.74554 10.6078 5.83333 10.8288 5.83333C11.0498 5.83333 11.2618 5.74554 11.4181 5.58926C11.5743 5.43297 11.6621 5.22101 11.6621 5C11.6621 4.77899 11.5743 4.56702 11.4181 4.41074C11.2618 4.25446 11.0498 4.16667 10.8288 4.16667ZM17.4955 4.16667C17.2745 4.16667 17.0625 4.25446 16.9062 4.41074C16.7499 4.56702 16.6621 4.77899 16.6621 5C16.6621 5.22101 16.7499 5.43297 16.9062 5.58926C17.0625 5.74554 17.2745 5.83333 17.4955 5.83333C17.7165 5.83333 17.9285 5.74554 18.0847 5.58926C18.241 5.43297 18.3288 5.22101 18.3288 5C18.3288 4.77899 18.241 4.56702 18.0847 4.41074C17.9285 4.25446 17.7165 4.16667 17.4955 4.16667ZM24.1621 4.16667C23.9411 4.16667 23.7292 4.25446 23.5729 4.41074C23.4166 4.56702 23.3288 4.77899 23.3288 5C23.3288 5.22101 23.4166 5.43297 23.5729 5.58926C23.7292 5.74554 23.9411 5.83333 24.1621 5.83333C24.3832 5.83333 24.5951 5.74554 24.7514 5.58926C24.9077 5.43297 24.9955 5.22101 24.9955 5C24.9955 4.77899 24.9077 4.56702 24.7514 4.41074C24.5951 4.25446 24.3832 4.16667 24.1621 4.16667ZM30.8288 4.16667C30.6078 4.16667 30.3958 4.25446 30.2396 4.41074C30.0833 4.56702 29.9955 4.77899 29.9955 5C29.9955 5.22101 30.0833 5.43297 30.2396 5.58926C30.3958 5.74554 30.6078 5.83333 30.8288 5.83333C31.0498 5.83333 31.2618 5.74554 31.4181 5.58926C31.5744 5.43297 31.6621 5.22101 31.6621 5C31.6621 4.77899 31.5744 4.56702 31.4181 4.41074C31.2618 4.25446 31.0498 4.16667 30.8288 4.16667ZM14.1621 7.5C13.9411 7.5 13.7292 7.5878 13.5729 7.74408C13.4166 7.90036 13.3288 8.11232 13.3288 8.33333C13.3288 8.55435 13.4166 8.76631 13.5729 8.92259C13.7292 9.07887 13.9411 9.16667 14.1621 9.16667C14.3832 9.16667 14.5951 9.07887 14.7514 8.92259C14.9077 8.76631 14.9955 8.55435 14.9955 8.33333C14.9955 8.11232 14.9077 7.90036 14.7514 7.74408C14.5951 7.5878 14.3832 7.5 14.1621 7.5ZM20.8288 7.5C20.6078 7.5 20.3958 7.5878 20.2396 7.74408C20.0833 7.90036 19.9955 8.11232 19.9955 8.33333C19.9955 8.55435 20.0833 8.76631 20.2396 8.92259C20.3958 9.07887 20.6078 9.16667 20.8288 9.16667C21.0498 9.16667 21.2618 9.07887 21.4181 8.92259C21.5743 8.76631 21.6621 8.55435 21.6621 8.33333C21.6621 8.11232 21.5743 7.90036 21.4181 7.74408C21.2618 7.5878 21.0498 7.5 20.8288 7.5ZM27.4955 7.5C27.2745 7.5 27.0625 7.5878 26.9062 7.74408C26.7499 7.90036 26.6621 8.11232 26.6621 8.33333C26.6621 8.55435 26.7499 8.76631 26.9062 8.92259C27.0625 9.07887 27.2745 9.16667 27.4955 9.16667C27.7165 9.16667 27.9285 9.07887 28.0847 8.92259C28.241 8.76631 28.3288 8.55435 28.3288 8.33333C28.3288 8.11232 28.241 7.90036 28.0847 7.74408C27.9285 7.5878 27.7165 7.5 27.4955 7.5ZM4.17679 8.33171C5.58041 8.3292 6.66215 9.44653 6.66215 10.8333V19.1667C6.66215 20.5375 7.79134 21.6667 9.16214 21.6667H32.4955C33.8663 21.6667 34.9955 20.5375 34.9955 19.1667V10.9766C34.9955 9.64182 35.9665 8.46657 37.2465 8.34473C38.7612 8.19998 39.9955 9.36087 39.9955 10.8333C39.9955 12.0037 39.1974 12.9622 38.1189 13.2422C37.9402 13.2887 37.7821 13.3932 37.6693 13.5393C37.5564 13.6854 37.4953 13.8649 37.4955 14.0495V20.8333C37.4955 23.1447 35.6402 25 33.3288 25H8.32881C6.01742 25 4.16215 23.1447 4.16215 20.8333V14.0576C4.16186 13.8731 4.10034 13.6939 3.98723 13.548C3.87412 13.4022 3.71582 13.2981 3.53715 13.252C2.27959 12.9274 1.39213 11.6838 1.73376 10.2197C1.9381 9.34441 2.68202 8.60469 3.5583 8.40332C3.76977 8.35475 3.97628 8.33206 4.17679 8.33171ZM10.8288 10.8333C10.6078 10.8333 10.3958 10.9211 10.2396 11.0774C10.0833 11.2337 9.99548 11.4457 9.99548 11.6667C9.99548 11.8877 10.0833 12.0996 10.2396 12.2559C10.3958 12.4122 10.6078 12.5 10.8288 12.5C11.0498 12.5 11.2618 12.4122 11.4181 12.2559C11.5743 12.0996 11.6621 11.8877 11.6621 11.6667C11.6621 11.4457 11.5743 11.2337 11.4181 11.0774C11.2618 10.9211 11.0498 10.8333 10.8288 10.8333ZM17.4955 10.8333C17.2745 10.8333 17.0625 10.9211 16.9062 11.0774C16.7499 11.2337 16.6621 11.4457 16.6621 11.6667C16.6621 11.8877 16.7499 12.0996 16.9062 12.2559C17.0625 12.4122 17.2745 12.5 17.4955 12.5C17.7165 12.5 17.9285 12.4122 18.0847 12.2559C18.241 12.0996 18.3288 11.8877 18.3288 11.6667C18.3288 11.4457 18.241 11.2337 18.0847 11.0774C17.9285 10.9211 17.7165 10.8333 17.4955 10.8333ZM24.1621 10.8333C23.9411 10.8333 23.7292 10.9211 23.5729 11.0774C23.4166 11.2337 23.3288 11.4457 23.3288 11.6667C23.3288 11.8877 23.4166 12.0996 23.5729 12.2559C23.7292 12.4122 23.9411 12.5 24.1621 12.5C24.3832 12.5 24.5951 12.4122 24.7514 12.2559C24.9077 12.0996 24.9955 11.8877 24.9955 11.6667C24.9955 11.4457 24.9077 11.2337 24.7514 11.0774C24.5951 10.9211 24.3832 10.8333 24.1621 10.8333ZM30.8288 10.8333C30.6078 10.8333 30.3958 10.9211 30.2396 11.0774C30.0833 11.2337 29.9955 11.4457 29.9955 11.6667C29.9955 11.8877 30.0833 12.0996 30.2396 12.2559C30.3958 12.4122 30.6078 12.5 30.8288 12.5C31.0498 12.5 31.2618 12.4122 31.4181 12.2559C31.5744 12.0996 31.6621 11.8877 31.6621 11.6667C31.6621 11.4457 31.5744 11.2337 31.4181 11.0774C31.2618 10.9211 31.0498 10.8333 30.8288 10.8333ZM8.32881 16.6667H18.3288C19.2594 16.6667 19.9955 17.4028 19.9955 18.3333V20H9.16214C8.69129 20 8.32881 19.6375 8.32881 19.1667V16.6667ZM23.3288 16.6667H33.3288V19.1667C33.3288 19.6375 32.9663 20 32.4955 20H21.6621V18.3333C21.6621 17.4028 22.3983 16.6667 23.3288 16.6667ZM6.66215 26.4193C7.19077 26.5777 7.74993 26.6667 8.32881 26.6667V28.3333H6.66215V26.4193ZM34.9955 26.4193V28.3333H33.3288V26.6667C33.9077 26.6667 34.4669 26.5777 34.9955 26.4193Z" fill="#2B124C"/>
</svg>
