<svg width="35" height="23" viewBox="0 0 35 23" fill="none" xmlns="http://www.w3.org/2000/svg">
<path d="M29.0412 12.3011C28.7808 12.3011 28.5204 12.2287 28.2925 12.0696C21.7332 7.57021 13.2534 7.57021 6.69411 12.0696C6.157 12.4313 5.39203 12.3445 4.98512 11.8815C4.57822 11.4041 4.67588 10.7241 5.19671 10.3624C12.6674 5.22645 22.3192 5.22645 29.7736 10.3624C30.3107 10.7241 30.4084 11.4041 29.9852 11.8815C29.7736 12.1564 29.4155 12.3011 29.0412 12.3011Z" fill="#2B124C"/>
<path d="M33.7761 7.26638C33.5157 7.26638 33.2553 7.19404 33.0274 7.0349C23.5873 0.553387 11.3965 0.553387 1.9726 7.0349C1.43549 7.39659 0.670511 7.30978 0.263609 6.84682C-0.15957 6.38385 -0.0619137 5.6894 0.475198 5.32771C10.8105 -1.7759 24.1732 -1.7759 34.5248 5.32771C35.0619 5.6894 35.1596 6.36938 34.7364 6.84682C34.5085 7.1217 34.1342 7.26638 33.7761 7.26638Z" fill="#2B124C"/>
<path d="M25.9792 17.586C25.7188 17.586 25.4584 17.5136 25.2305 17.3545C20.543 14.1282 14.472 14.1282 9.76821 17.3545C9.2311 17.7162 8.46612 17.6294 8.05922 17.1664C7.65232 16.689 7.74997 16.009 8.27081 15.6473C13.8698 11.7989 21.1127 11.7989 26.7117 15.6473C27.2488 16.009 27.3464 16.689 26.9233 17.1664C26.6954 17.4413 26.3373 17.586 25.9792 17.586Z" fill="#2B124C"/>
<path d="M21.7306 22.88C21.4702 22.88 21.2097 22.8076 20.9819 22.6485C18.866 21.1872 16.1153 21.1872 13.9994 22.6485C13.4623 23.0102 12.6973 22.9234 12.2904 22.4604C11.8835 21.983 11.9812 21.303 12.502 20.9413C15.5294 18.8579 19.4356 18.8579 22.463 20.9413C23.0001 21.303 23.0978 21.983 22.6746 22.4604C22.463 22.7208 22.1049 22.88 21.7306 22.88Z" fill="#2B124C"/>
</svg>
