<svg width="29" height="29" viewBox="0 0 29 29" fill="none" xmlns="http://www.w3.org/2000/svg">
<path d="M23.2321 10.732C23.2321 12.5408 22.6957 14.1999 21.7726 15.5845C20.4254 17.5804 18.2923 18.99 15.8099 19.3517C15.3857 19.4266 14.9491 19.464 14.5001 19.464C14.051 19.464 13.6144 19.4266 13.1903 19.3517C10.7079 18.99 8.57478 17.5804 7.22756 15.5845C6.30446 14.1999 5.76807 12.5408 5.76807 10.732C5.76807 5.90446 9.67252 2 14.5001 2C19.3276 2 23.2321 5.90446 23.2321 10.732Z" stroke="#2B124C" stroke-width="3" stroke-linecap="round" stroke-linejoin="round"/>
<path d="M26.0387 22.5454L23.9805 23.0319C23.5189 23.1441 23.1572 23.4934 23.0574 23.9549L22.6208 25.7887C22.3838 26.7866 21.1114 27.086 20.4503 26.3001L14.5 19.4642L8.54974 26.3126C7.8886 27.0985 6.61622 26.7991 6.37921 25.8011L5.94261 23.9674C5.83034 23.5059 5.46859 23.1441 5.01951 23.0443L2.96125 22.5578C2.01321 22.3333 1.6764 21.1482 2.36249 20.4621L7.22746 15.5972C8.57469 17.5931 10.7078 19.0027 13.1902 19.3644C13.6144 19.4393 14.051 19.4767 14.5 19.4767C14.9491 19.4767 15.3857 19.4393 15.8098 19.3644C18.2922 19.0027 20.4253 17.5931 21.7725 15.5972L26.6375 20.4621C27.3236 21.1358 26.9868 22.3208 26.0387 22.5454Z" stroke="#2B124C" stroke-width="3" stroke-linecap="round" stroke-linejoin="round"/>
<path d="M15.2235 6.96498L15.9595 8.43693C16.0593 8.63652 16.3213 8.83612 16.5583 8.87354L17.893 9.09807C18.7413 9.23529 18.9409 9.85901 18.3296 10.4703L17.2943 11.5056C17.1196 11.6802 17.0198 12.0171 17.0822 12.2666L17.3816 13.5514C17.6186 14.5618 17.0822 14.961 16.1841 14.4246L14.9366 13.6886C14.7121 13.5514 14.3379 13.5514 14.1133 13.6886L12.8659 14.4246C11.9677 14.9485 11.4313 14.5618 11.6683 13.5514L11.9677 12.2666C12.0176 12.0295 11.9303 11.6802 11.7556 11.5056L10.7203 10.4703C10.109 9.85901 10.3086 9.24776 11.1569 9.09807L12.4917 8.87354C12.7162 8.83612 12.9782 8.63652 13.078 8.43693L13.8139 6.96498C14.1757 6.16662 14.8244 6.16662 15.2235 6.96498Z" stroke="#2B124C" stroke-width="3" stroke-linecap="round" stroke-linejoin="round"/>
</svg>
