<svg width="29" height="29" viewBox="0 0 29 29" fill="none" xmlns="http://www.w3.org/2000/svg">
<path d="M23.232 10.732C23.232 12.5408 22.6956 14.1999 21.7725 15.5845C20.4253 17.5804 18.2922 18.99 15.8098 19.3517C15.3857 19.4266 14.9491 19.464 14.5 19.464C14.0509 19.464 13.6143 19.4266 13.1902 19.3517C10.7078 18.99 8.57472 17.5804 7.2275 15.5845C6.3044 14.1999 5.76801 12.5408 5.76801 10.732C5.76801 5.90446 9.67246 2 14.5 2C19.3276 2 23.232 5.90446 23.232 10.732Z" stroke="#2B124C" stroke-width="3" stroke-linecap="round" stroke-linejoin="round"/>
<path d="M26.0387 22.5451L23.9805 23.0316C23.5189 23.1439 23.1572 23.4932 23.0574 23.9547L22.6208 25.7884C22.3838 26.7864 21.1114 27.0858 20.4503 26.2999L14.5 19.464L8.54974 26.3123C7.8886 27.0982 6.61622 26.7988 6.37921 25.8009L5.94261 23.9672C5.83034 23.5056 5.46859 23.1439 5.01951 23.0441L2.96125 22.5576C2.01321 22.333 1.6764 21.148 2.36249 20.4619L7.22746 15.5969C8.57469 17.5928 10.7078 19.0024 13.1902 19.3642C13.6144 19.439 14.051 19.4764 14.5 19.4764C14.9491 19.4764 15.3857 19.439 15.8098 19.3642C18.2922 19.0024 20.4253 17.5928 21.7725 15.5969L26.6375 20.4619C27.3236 21.1355 26.9868 22.3206 26.0387 22.5451Z" stroke="#2B124C" stroke-width="3" stroke-linecap="round" stroke-linejoin="round"/>
<path d="M15.2235 6.96473L15.9595 8.43669C16.0593 8.63628 16.3213 8.83588 16.5583 8.8733L17.893 9.09783C18.7413 9.23504 18.9409 9.85877 18.3296 10.47L17.2943 11.5054C17.1196 11.68 17.0198 12.0168 17.0822 12.2663L17.3816 13.5512C17.6186 14.5616 17.0822 14.9608 16.1841 14.4244L14.9366 13.6884C14.7121 13.5512 14.3379 13.5512 14.1133 13.6884L12.8659 14.4244C11.9677 14.9483 11.4313 14.5616 11.6683 13.5512L11.9677 12.2663C12.0176 12.0293 11.9303 11.68 11.7556 11.5054L10.7203 10.47C10.109 9.85877 10.3086 9.24752 11.1569 9.09783L12.4917 8.8733C12.7162 8.83588 12.9782 8.63628 13.078 8.43669L13.8139 6.96473C14.1757 6.16638 14.8244 6.16638 15.2235 6.96473Z" stroke="#2B124C" stroke-width="3" stroke-linecap="round" stroke-linejoin="round"/>
</svg>
