<svg width="40" height="44" viewBox="0 0 40 44" fill="none" xmlns="http://www.w3.org/2000/svg">
<path d="M6.7487 37.1156C5.49742 37.1156 4.32819 36.6846 3.48716 35.8846C2.42049 34.8794 1.90767 33.3615 2.09229 31.7205L2.85126 25.0743C2.99485 23.823 3.75383 22.1615 4.63588 21.2589L21.4769 3.4334C25.6821 -1.01789 30.0718 -1.14097 34.5231 3.06416C38.9744 7.26929 39.0974 11.659 34.8923 16.1103L18.0513 33.9359C17.1897 34.8589 15.5897 35.7205 14.3384 35.9258L7.73331 37.0538C7.3846 37.0743 7.0769 37.1156 6.7487 37.1156ZM28.0615 3.04365C26.4821 3.04365 25.1077 4.02827 23.7128 5.50519L6.87178 23.3514C6.46152 23.7822 5.98973 24.8079 5.90767 25.4027L5.1487 32.0487C5.06665 32.7256 5.23075 33.2794 5.59998 33.6282C5.96921 33.9769 6.52306 34.1 7.19998 33.9974L13.8051 32.8694C14.4 32.7668 15.3846 32.2333 15.7949 31.8025L32.6359 13.977C35.1795 11.2693 36.1026 8.76673 32.3897 5.27955C30.7487 3.70006 29.3333 3.04365 28.0615 3.04365Z" fill="#2B124C"/>
<path d="M30.9546 19.5354C30.9136 19.5354 30.8521 19.5354 30.811 19.5354C24.411 18.8995 19.2623 14.0381 18.2777 7.67914C18.1546 6.83811 18.729 6.05863 19.57 5.91504C20.411 5.79196 21.1905 6.36632 21.3341 7.20734C22.1136 12.1714 26.1341 15.9868 31.1392 16.4791C31.9803 16.5612 32.5957 17.3202 32.5136 18.1611C32.411 18.9406 31.7341 19.5354 30.9546 19.5354Z" fill="#2B124C"/>
<path d="M38.4615 43.741H1.53846C0.697436 43.741 0 43.0435 0 42.2025C0 41.3615 0.697436 40.6641 1.53846 40.6641H38.4615C39.3026 40.6641 40 41.3615 40 42.2025C40 43.0435 39.3026 43.741 38.4615 43.741Z" fill="#2B124C"/>
</svg>
