<svg width="40" height="44" viewBox="0 0 40 44" fill="none" xmlns="http://www.w3.org/2000/svg">
<path d="M6.74858 37.1156C5.4973 37.1156 4.32806 36.6846 3.48704 35.8846C2.42037 34.8794 1.90755 33.3615 2.09217 31.7205L2.85114 25.0743C2.99473 23.823 3.75371 22.1615 4.63576 21.2589L21.4768 3.4334C25.6819 -1.01789 30.0717 -1.14097 34.523 3.06416C38.9742 7.26929 39.0973 11.659 34.8922 16.1103L18.0512 33.9359C17.1896 34.8589 15.5896 35.7205 14.3383 35.9258L7.73319 37.0538C7.38448 37.0743 7.07678 37.1156 6.74858 37.1156ZM28.0614 3.04365C26.4819 3.04365 25.1076 4.02827 23.7127 5.50519L6.87165 23.3514C6.4614 23.7822 5.9896 24.8079 5.90755 25.4027L5.14858 32.0487C5.06653 32.7256 5.23063 33.2794 5.59986 33.6282C5.96909 33.9769 6.52294 34.1 7.19986 33.9974L13.805 32.8694C14.3999 32.7668 15.3845 32.2333 15.7947 31.8025L32.6358 13.977C35.1794 11.2693 36.1024 8.76673 32.3896 5.27955C30.7486 3.70006 29.3332 3.04365 28.0614 3.04365Z" fill="#2B124C"/>
<path d="M30.9545 19.5354C30.9135 19.5354 30.8519 19.5354 30.8109 19.5354C24.4109 18.8995 19.2622 14.0381 18.2776 7.67914C18.1545 6.83811 18.7289 6.05863 19.5699 5.91504C20.4109 5.79196 21.1904 6.36632 21.334 7.20734C22.1135 12.1714 26.134 15.9868 31.1391 16.4791C31.9801 16.5612 32.5955 17.3202 32.5135 18.1611C32.4109 18.9406 31.734 19.5354 30.9545 19.5354Z" fill="#2B124C"/>
<path d="M38.4615 43.741H1.53846C0.697436 43.741 0 43.0435 0 42.2025C0 41.3615 0.697436 40.6641 1.53846 40.6641H38.4615C39.3026 40.6641 40 41.3615 40 42.2025C40 43.0435 39.3026 43.741 38.4615 43.741Z" fill="#2B124C"/>
</svg>
