<svg width="40" height="40" viewBox="0 0 40 40" fill="none" xmlns="http://www.w3.org/2000/svg">
<path d="M1.40436 40C1.03236 40 0.678895 39.8512 0.418491 39.5909C0.0650842 39.2376 -0.0836257 38.7169 0.0465767 38.2334L2.39024 29.4746C0.82781 26.5737 0.00933877 23.3008 0.00933877 19.9907C0.00933877 8.96329 8.9747 0 20.0046 0C31.0346 0 40 8.96329 40 19.9907C40 31.0181 31.0346 39.9814 20.0046 39.9814C16.638 39.9814 13.3458 39.1446 10.407 37.5453L1.77639 39.9442C1.64619 39.9814 1.53457 40 1.40436 40ZM10.5929 34.6629C10.8347 34.6629 11.0766 34.7375 11.2998 34.8491C13.9224 36.3926 16.9356 37.2106 20.0046 37.2106C29.4908 37.2106 37.2099 29.4932 37.2099 20.0093C37.2099 10.5254 29.4908 2.80802 20.0046 2.80802C10.5185 2.80802 2.79939 10.5254 2.79939 20.0093C2.79939 23.0404 3.59919 25.9972 5.10581 28.6006C5.29182 28.9168 5.34766 29.3073 5.25465 29.6606L3.39462 36.6155L10.2395 34.7187C10.3511 34.6815 10.4813 34.6629 10.5929 34.6629Z" fill="#DFB6B2"/>
<path d="M25.1013 30.7199C23.9481 30.7199 22.7577 30.4595 21.5115 29.9203C20.3397 29.4182 19.1678 28.7487 18.0332 27.9119C16.9172 27.0937 15.8199 26.1639 14.8155 25.1597C13.8111 24.1369 12.881 23.0583 12.0625 21.9426C11.2255 20.771 10.5559 19.6181 10.0723 18.4837C9.55149 17.2564 9.29111 16.0476 9.29111 14.8947C9.29111 14.0764 9.43987 13.2954 9.71888 12.5702C10.0165 11.8077 10.5001 11.1196 11.1325 10.5246C12.3229 9.35303 14.0343 8.92536 15.3921 9.57622C15.8571 9.78077 16.2477 10.1155 16.5454 10.5618L18.7028 13.5929C18.926 13.8905 19.0936 14.2066 19.2238 14.5227C19.3726 14.8946 19.4656 15.2666 19.4656 15.6199C19.4656 16.1034 19.3352 16.5869 19.0748 17.0146C18.9074 17.2935 18.6656 17.6283 18.3494 17.9444L18.1076 18.2048C18.2192 18.3535 18.3494 18.5395 18.554 18.7626C18.9446 19.2089 19.3724 19.6924 19.8374 20.1573C20.3025 20.6036 20.7675 21.0499 21.2325 21.4405C21.4557 21.6264 21.6419 21.7752 21.7907 21.8682L22.0509 21.6078C22.3857 21.2731 22.7207 21.0128 23.0555 20.8454C23.6693 20.4549 24.6177 20.3619 25.4548 20.7152C25.7524 20.8268 26.05 20.9942 26.3662 21.2173L29.4726 23.4116C29.9004 23.7092 30.235 24.1183 30.4582 24.5832C30.6442 25.0481 30.7188 25.4572 30.7188 25.8849C30.7188 26.4428 30.5884 26.9821 30.3466 27.5028C30.1048 27.9863 29.8258 28.414 29.491 28.8045C28.8958 29.4553 28.2078 29.9388 27.4638 30.255C26.7198 30.5711 25.9198 30.7199 25.1013 30.7199ZM14.0342 12.0866C13.9226 12.0866 13.5507 12.0866 13.0857 12.5515C12.7322 12.8863 12.4904 13.2396 12.323 13.6301C12.1556 14.0207 12.0812 14.467 12.0812 14.9133C12.0812 15.6943 12.2671 16.5311 12.6392 17.4237C13.0298 18.3535 13.6064 19.3391 14.3132 20.3247C15.0387 21.3103 15.8571 22.2959 16.7686 23.2071C17.68 24.0997 18.647 24.9365 19.6514 25.6804C20.6187 26.387 21.6047 26.9449 22.5905 27.3726C24.0041 27.9863 25.3059 28.135 26.3662 27.6887C26.7382 27.54 27.073 27.2796 27.4078 26.9449C27.5752 26.7589 27.7056 26.573 27.8172 26.3312C27.873 26.201 27.91 26.0523 27.91 25.9221C27.91 25.8849 27.91 25.8291 27.8542 25.7176L24.7479 23.5604C24.6177 23.4674 24.4875 23.393 24.3759 23.3559C24.3015 23.393 24.1901 23.4488 23.9855 23.6534L23.2787 24.36C22.7393 24.8993 21.8837 25.0481 21.1955 24.8063L20.8607 24.6576C20.4328 24.4344 19.949 24.0997 19.4096 23.6348C18.8888 23.1885 18.3868 22.7236 17.8474 22.2029C17.3266 21.6636 16.8616 21.1615 16.4152 20.6408C15.9315 20.0644 15.5967 19.5995 15.3735 19.2089L15.1689 18.7254C15.1131 18.5395 15.0944 18.3349 15.0944 18.149C15.0944 17.6283 15.2805 17.1634 15.6339 16.7915L16.3408 16.0662C16.5454 15.8617 16.6198 15.7501 16.657 15.6757C16.6012 15.5455 16.5268 15.4339 16.4338 15.3038L14.2574 12.2354L14.0342 12.0866Z" fill="#DFB6B2"/>
</svg>
