<svg width="287" height="241" viewBox="0 0 287 241" fill="none" xmlns="http://www.w3.org/2000/svg">
<path d="M1 56.0331V86H22.1562V78.3644H31V56L1 56.0331ZM29.6562 69.385H27.4875V70.7288H29.6562V77.02H22.1562V75.5338H20.8125V84.6588H8.09V83.1731H6.75V84.6562H2.34438V78.3644H6.75V79.825H8.09312V75.5244H6.75V77.0206H2.34438V70.7294H6.75V72.2325H8.09312V70.7294H10.8013V69.3856H2.34375V57.375H16.7456V69.385H14.0625V70.7288H20.8125V72.2225H22.1562V70.7288H24.2812V69.385H18.0887V57.3444H29.6556L29.6562 69.385Z" fill="#2B124C" fill-opacity="0.7"/>
<path d="M22.1562 86H1V56.0331L31 56V78.3644H22.1562V86ZM2.34375 84.6569H20.8125V77.0206H29.6562V57.345L2.34375 57.375V84.6569Z" fill="#2B124C"/>
<path d="M33.8946 17.8421V8.63158C33.8946 7.18421 32.7104 6 31.263 6H4.94725C3.49988 6 2.31567 7.18421 2.31567 8.63158V17.8421" stroke="#2B124C" stroke-width="2" stroke-miterlimit="10"/>
<path d="M7.57898 17.8421V15.2106C7.57898 13.7632 8.76319 12.579 10.2106 12.579H15.4737C16.9211 12.579 18.1053 13.7632 18.1053 15.2106V17.8421" stroke="#2B124C" stroke-width="2" stroke-miterlimit="10"/>
<path d="M18.1053 17.8421V15.2106C18.1053 13.7632 19.2896 12.579 20.7369 12.579H26.0001C27.4475 12.579 28.6317 13.7632 28.6317 15.2106V17.8421" stroke="#2B124C" stroke-width="2" stroke-miterlimit="10"/>
<path d="M1 20.4737V31.0001H4.94737V28.3685H31.2632V31.0001H35.2105V20.4737C35.2105 19.0264 34.0263 17.8422 32.5789 17.8422H3.63158C2.18421 17.8422 1 19.0264 1 20.4737Z" stroke="#2B124C" stroke-width="2" stroke-miterlimit="10"/>
<path d="M3.36842 119.816L8.10526 120.211V113.105L3.36842 108.368V119.816ZM8.10526 121.789L3.36842 122.184V133.632L8.10526 128.895V121.789ZM25.4737 120.211L30.2105 119.816V108.368L25.4737 113.105V120.211ZM30.2105 122.184L25.4737 121.789V128.895L30.2105 133.632V122.184ZM32.5789 106V136H30.2105L25.4737 131.263H8.10526L3.36842 136H1V106H3.36842L8.10526 110.737H25.4737L30.2105 106H32.5789ZM23.1053 113.105H10.4737V128.895H23.1053V113.105Z" fill="#2B124C"/>
<path d="M1.00067 170.62C1.00067 170.62 0.871017 173.858 4.21321 176.408L6.08456 177.534C6.08456 177.534 5.44873 182.342 5.46653 184.896C5.47073 185.494 5.51317 185.92 7.5892 185.998H13.796C13.796 185.998 15.3633 186.092 15.3938 185.068C15.4514 183.131 15.3938 177.427 15.3938 177.427C15.3938 177.427 17.2069 175.936 17.6103 175.269C17.6103 175.269 19.4193 172.704 18.6511 170.733C18.6511 170.733 18.0512 170.656 15.9822 170.652L3.84495 170.626L1.00067 170.62Z" stroke="#2B124C" stroke-width="2" stroke-miterlimit="10" stroke-linecap="round" stroke-linejoin="round"/>
<path d="M15.4977 167.086H1.53868C1.53868 167.086 0.937305 167.135 1.00884 168.156" stroke="#2B124C" stroke-width="2" stroke-miterlimit="10" stroke-linecap="round" stroke-linejoin="round"/>
<path d="M18.0356 185.943H22.5167C20.7815 179.968 21.3669 174.727 21.3669 174.727C21.3669 174.727 21.479 171.629 23.6105 170.984C23.6105 170.984 26.0224 170.282 26.8358 169.806V158.592H18.0605V167.711" stroke="#2B124C" stroke-width="2" stroke-miterlimit="10" stroke-linecap="round" stroke-linejoin="round"/>
<path d="M17.9907 156H26.9991" stroke="#2B124C" stroke-width="2" stroke-miterlimit="10" stroke-linecap="round" stroke-linejoin="round"/>
<path d="M24.9636 211.182C25.1754 210.953 25.5299 210.938 25.7588 211.15C25.9878 211.361 26.0025 211.716 25.7908 211.945L21.1823 216.933L21.1749 216.942C20.6111 217.624 20.2246 218.255 20.0523 218.831C19.8996 219.34 19.9218 219.803 20.1483 220.207C20.2689 220.423 20.2295 220.689 20.0695 220.864L17.8809 223.232C17.6667 222.999 17.4969 222.809 17.3836 222.686C17.3319 222.617 17.2729 222.55 17.2113 222.486L17.2064 222.491C17.1768 222.459 17.1448 222.43 17.1128 222.4L18.9838 220.374C18.7647 219.788 18.7672 219.165 18.9691 218.503C19.1857 217.784 19.6461 217.019 20.3083 216.221C20.3231 216.201 20.3354 216.182 20.3526 216.164L24.9587 211.177L24.9636 211.182ZM15.0646 224.542C14.8578 224.311 14.8775 223.954 15.1089 223.747C15.3403 223.54 15.6973 223.56 15.9041 223.791C18.2207 226.386 25.3821 234.064 27.3664 236.935C29.9833 240.64 25.9311 241.807 24.587 240.458C21.229 237.211 14.0995 228.932 10.9656 225.421C9.83811 225.899 8.74259 225.972 7.64215 225.657C6.45801 225.32 5.29848 224.53 4.12172 223.316L4.10695 223.301C3.21084 222.356 2.50922 221.423 2.00208 220.5C1.48263 219.55 1.16506 218.609 1.05181 217.676C0.931182 216.672 1.02473 215.736 1.29553 214.906C1.61311 213.932 2.17687 213.107 2.91542 212.494C3.6589 211.878 4.57224 211.48 5.59144 211.357C6.43831 211.256 7.3615 211.342 8.31669 211.654C9.6387 212.085 11.1798 213.156 12.4575 214.53C13.4004 215.542 14.2079 216.726 14.6879 217.944C15.1877 219.215 15.3403 220.529 14.939 221.76C14.7027 222.489 14.2743 223.173 13.6096 223.791C13.3807 224.003 13.0262 223.988 12.8145 223.762C12.6028 223.533 12.6175 223.178 12.844 222.967C13.3585 222.486 13.6884 221.962 13.8681 221.408C14.1783 220.455 14.0479 219.399 13.6392 218.36C13.2108 217.272 12.4846 216.209 11.6328 215.295C10.4806 214.06 9.11433 213.102 7.96219 212.725C7.17194 212.469 6.41616 212.395 5.72438 212.479C4.92182 212.578 4.20296 212.885 3.62936 213.365C3.05329 213.845 2.61262 214.493 2.35905 215.263C2.13994 215.936 2.06363 216.709 2.16456 217.543C2.26057 218.331 2.53384 219.136 2.98189 219.958C3.4521 220.803 4.0971 221.657 4.92674 222.531L4.93167 222.538C5.97056 223.609 6.96761 224.298 7.9548 224.579C8.88784 224.845 9.83811 224.742 10.8302 224.247C11.0567 224.116 11.3497 224.161 11.5294 224.362C14.587 227.787 22.0242 236.406 25.3181 239.599C26.7485 240.182 27.5412 239.463 26.8568 238.195C25.7908 236.216 16.6328 226.305 15.0646 224.542ZM12.0956 229.493L4.9169 237.26C4.90213 237.275 4.88982 237.29 4.87258 237.304C3.82384 238.437 5.68007 240.086 6.83221 238.983L13.8041 231.438L14.5525 232.287L7.63477 239.773C7.61999 239.791 7.60522 239.806 7.58553 239.823C7.17194 240.17 6.75589 240.396 6.33492 240.49C5.90163 240.588 5.47573 240.544 5.06707 240.352C4.99814 240.325 4.93413 240.29 4.87751 240.239L3.88539 239.321C3.87062 239.306 3.85584 239.293 3.84107 239.276C3.45703 238.833 3.27485 238.36 3.32409 237.861C3.37086 237.388 3.62197 236.928 4.0971 236.484L11.3448 228.641L12.0956 229.493ZM19.619 225.145L20.0449 224.685C20.2566 224.456 20.6136 224.441 20.8401 224.653C21.0665 224.865 21.0838 225.219 20.8721 225.448L20.3797 225.98L19.619 225.145ZM26.714 212.829C26.9257 212.6 27.2802 212.585 27.5092 212.797C27.7381 213.008 27.7529 213.363 27.5412 213.592L23.5013 217.967C23.2896 218.195 22.9351 218.21 22.7061 217.999C22.4772 217.787 22.4624 217.432 22.6741 217.203L26.714 212.829ZM28.4619 214.446C28.6736 214.217 29.0281 214.202 29.2571 214.414C29.486 214.626 29.5008 214.98 29.2891 215.209L25.2517 219.582C25.04 219.81 24.6854 219.825 24.4565 219.614C24.2275 219.402 24.2128 219.047 24.4245 218.818L28.4619 214.446ZM30.2738 216.128C30.4855 215.899 30.84 215.884 31.069 216.096C31.2979 216.307 31.3127 216.664 31.101 216.891L26.4924 221.881C26.4752 221.898 26.458 221.913 26.4407 221.93C25.392 222.939 24.39 223.523 23.4324 223.688C22.3935 223.868 21.4407 223.572 20.5668 222.809C20.3329 222.605 20.3108 222.248 20.5126 222.016C20.717 221.782 21.0739 221.76 21.3053 221.962C21.9085 222.489 22.5535 222.696 23.2354 222.575C23.9691 222.45 24.7765 221.965 25.6579 221.115L25.6628 221.11L30.2689 216.125L30.2738 216.128Z" fill="#2B124C"/>
<path d="M280.062 67.875C277.827 67.875 254.428 67.875 253.812 67.875V64.5938H255.688C256.205 64.5938 256.625 64.174 256.625 63.6562V61.3125C256.625 60.7948 256.205 60.375 255.688 60.375C255.17 60.375 254.75 60.7948 254.75 61.3125V62.7188H253.812V54.5892C253.812 53.0714 255.662 52.3003 256.739 53.3771L257.731 54.3697C256.945 55.7408 257.136 57.5241 258.306 58.6942L258.775 59.1629C259.141 59.529 259.734 59.5291 260.1 59.1629L263.85 55.4129C264.217 55.0468 264.217 54.4532 263.85 54.0871L263.382 53.6184C262.189 52.4259 260.403 52.2672 259.056 53.0432L258.065 52.0513C257.387 51.3734 256.485 51 255.527 51C253.548 51 251.938 52.6101 251.938 54.5892V67.875C251.42 67.875 251 68.2948 251 68.8125C251 69.3302 251.42 69.75 251.938 69.75V71.625C251.938 74.1966 253.094 76.5028 254.914 78.0516L253.606 79.4127C253.031 80.0099 253.462 81 254.281 81C254.527 81 254.773 80.9037 254.957 80.7123L256.493 79.1149C257.656 79.7199 258.976 80.0625 260.375 80.0625H271.625C273.024 80.0625 274.344 79.7199 275.507 79.1149L277.043 80.7123C277.401 81.0844 277.994 81.0981 278.369 80.7382C278.742 80.3793 278.753 79.7858 278.394 79.4126L277.086 78.0516C278.906 76.5028 280.062 74.1966 280.062 71.625V69.75C280.58 69.75 281 69.3302 281 68.8125C281 68.2948 280.58 67.875 280.062 67.875ZM261.846 54.7654L259.453 57.1586C258.97 56.4891 259.029 55.5464 259.632 54.9441C260.24 54.3361 261.182 54.2844 261.846 54.7654ZM278.188 71.625C278.188 75.2436 275.244 78.1875 271.625 78.1875H260.375C256.756 78.1875 253.812 75.2436 253.812 71.625V69.75H278.188V71.625Z" fill="#2B124C"/>
<path d="M268.467 27L268.485 26.9806" stroke="#2B124C" stroke-width="2" stroke-linecap="round" stroke-linejoin="round"/>
<path d="M251 6.8952C261.48 -0.965065 275.454 -0.965065 285.934 6.8952" stroke="#2B124C" stroke-width="2" stroke-linecap="round" stroke-linejoin="round"/>
<path d="M256.24 13.882C263.227 8.64186 273.707 8.64186 280.694 13.882" stroke="#2B124C" stroke-width="2" stroke-linecap="round" stroke-linejoin="round"/>
<path d="M262.354 19.9956C266.285 17.5502 270.65 17.5495 274.581 19.9956" stroke="#2B124C" stroke-width="2" stroke-linecap="round" stroke-linejoin="round"/>
<path d="M276.109 120.587L279.697 117M279.697 117L283.283 113.413M279.697 117L276.109 113.413M279.697 117L283.283 120.587" stroke="#2B124C" stroke-width="2" stroke-linecap="round" stroke-linejoin="round"/>
<path d="M251 120.587V113.413C251 112.422 251.803 111.619 252.794 111.619H257.631C257.985 111.619 258.331 111.515 258.626 111.318L266.147 106.304C267.339 105.51 268.935 106.364 268.935 107.797V126.203C268.935 127.636 267.339 128.49 266.147 127.696L258.626 122.682C258.331 122.485 257.985 122.381 257.631 122.381H252.794C251.803 122.381 251 121.578 251 120.587Z" stroke="#2B124C" stroke-width="2"/>
<path d="M263.681 155.858H264.621V163.649H263.681V155.858Z" fill="#2B124C"/>
<path d="M264.151 156.895L261.167 153.948L264.151 151L267.135 153.948L264.151 156.895ZM262.505 153.948L264.151 155.573L265.797 153.948L264.151 152.322L262.505 153.948Z" fill="#2B124C"/>
<path d="M264.151 161.304L259.72 156.928L260.38 156.259L264.151 159.983L267.921 156.259L268.582 156.928L264.151 161.304Z" fill="#2B124C"/>
<path d="M255.491 160.521L262.322 164.416L261.856 165.233L255.025 161.338L255.491 160.521Z" fill="#2B124C"/>
<path d="M252.094 162.528L251 158.497L255.071 157.419L256.165 161.45L252.094 162.528ZM252.155 159.164L252.756 161.38L255.01 160.784L254.409 158.568L252.155 159.164Z" fill="#2B124C"/>
<path d="M253.972 165.259L253.731 164.35L258.876 162.988L257.499 157.912L258.406 157.666L260.032 163.655L253.972 165.259Z" fill="#2B124C"/>
<path d="M261.856 166.768L262.322 167.584L255.491 171.479L255.025 170.662L261.856 166.768Z" fill="#2B124C"/>
<path d="M255.071 174.58L251 173.504L252.094 169.472L256.165 170.55L255.071 174.58ZM252.155 172.836L254.408 173.433L255.009 171.217L252.756 170.62L252.155 172.836Z" fill="#2B124C"/>
<path d="M258.406 174.335L257.499 174.088L258.876 169.012L253.731 167.651L253.972 166.742L260.031 168.345L258.406 174.335Z" fill="#2B124C"/>
<path d="M263.681 168.352H264.621V176.142H263.681V168.352Z" fill="#2B124C"/>
<path d="M264.151 181L261.166 178.053L264.151 175.106L267.134 178.053L264.151 181ZM262.504 178.053L264.151 179.679L265.796 178.053L264.15 176.427L262.504 178.053Z" fill="#2B124C"/>
<path d="M267.921 175.742L264.15 172.018L260.381 175.742L259.72 175.073L264.15 170.696L268.582 175.073L267.921 175.742Z" fill="#2B124C"/>
<path d="M266.446 166.767L273.276 170.662L272.811 171.478L265.98 167.584L266.446 166.767Z" fill="#2B124C"/>
<path d="M273.229 174.581L272.136 170.55L276.207 169.473L277.301 173.503L273.229 174.581ZM273.291 171.217L273.892 173.433L276.146 172.836L275.545 170.621L273.291 171.217Z" fill="#2B124C"/>
<path d="M269.895 174.335L268.27 168.345L274.329 166.742L274.57 167.651L269.425 169.012L270.803 174.088L269.895 174.335Z" fill="#2B124C"/>
<path d="M272.809 160.519L273.275 161.336L266.446 165.233L265.98 164.416L272.809 160.519Z" fill="#2B124C"/>
<path d="M276.208 162.528L272.136 161.451L273.231 157.42L277.301 158.497L276.208 162.528ZM273.292 160.784L275.545 161.381L276.146 159.164L273.893 158.568L273.292 160.784Z" fill="#2B124C"/>
<path d="M274.329 165.259L268.27 163.656L269.895 157.666L270.803 157.912L269.425 162.989L274.57 164.35L274.329 165.259Z" fill="#2B124C"/>
<path d="M265.642 168.361H262.866L261.473 165.978L262.866 163.595H265.642L267.036 165.978L265.642 168.361ZM263.405 167.421H265.103L265.947 165.978L265.103 164.536H263.405L262.562 165.978L263.405 167.421Z" fill="#2B124C"/>
<path d="M258 206C256.849 206 255.9 206.949 255.9 208.1V210.2C255.9 210.566 256.029 210.941 256.294 211.206C256.491 211.403 256.742 211.529 257.016 211.578C256.912 211.66 256.783 211.723 256.622 211.753H256.6C253.42 212.45 251 215.256 251 218.666V220.7C251 221.58 251.623 222.207 252.4 222.516V231.484C251.623 231.793 251 232.42 251 233.3V237.5C251 239.422 252.578 241 254.5 241H265.7C267.622 241 269.2 239.422 269.2 237.5V233.3C269.2 232.42 268.577 231.793 267.8 231.484V222.516C268.577 222.207 269.2 221.58 269.2 220.7V218.666C269.2 215.256 266.78 212.45 263.6 211.753H263.578C263.417 211.723 263.288 211.66 263.184 211.578C263.458 211.529 263.709 211.403 263.906 211.206C264.171 210.941 264.3 210.566 264.3 210.2V208.1C264.3 206.949 263.351 206 262.2 206H258ZM258 207.4H262.2C262.588 207.4 262.9 207.712 262.9 208.1V210.2H257.3V208.1C257.3 207.712 257.612 207.4 258 207.4ZM258.459 211.6H261.741C261.995 212.333 262.512 212.951 263.316 213.109V213.131H263.338C265.889 213.7 267.8 215.923 267.8 218.666V220.7C267.8 221.088 267.488 221.4 267.1 221.4H255.2V222.8H266.4V231.2H255.2V232.6H267.1C267.488 232.6 267.8 232.912 267.8 233.3V237.5C267.8 238.659 266.859 239.6 265.7 239.6H254.5C253.341 239.6 252.4 238.659 252.4 237.5V233.3C252.4 232.912 252.712 232.6 253.1 232.6H253.8V221.4H253.1C252.712 221.4 252.4 221.088 252.4 220.7V218.666C252.4 215.923 254.311 213.7 256.863 213.131C256.873 213.129 256.873 213.112 256.884 213.109C257.688 212.951 258.205 212.333 258.459 211.6Z" fill="#2B124C"/>
</svg>
