<svg width="34" height="34" viewBox="0 0 34 34" fill="none" xmlns="http://www.w3.org/2000/svg">
<path d="M27.4783 12.4784C27.4783 14.6489 26.8346 16.6398 25.7269 18.3014C24.1102 20.6965 21.5505 22.388 18.5717 22.8221C18.0627 22.9119 17.5388 22.9568 16.9999 22.9568C16.461 22.9568 15.9371 22.9119 15.4281 22.8221C12.4493 22.388 9.88954 20.6965 8.27288 18.3014C7.16516 16.6398 6.52148 14.6489 6.52148 12.4784C6.52148 6.68535 11.2068 2 16.9999 2C22.793 2 27.4783 6.68535 27.4783 12.4784Z" stroke="#2B124C" stroke-width="3" stroke-linecap="round" stroke-linejoin="round"/>
<path d="M30.8465 26.6542L28.3766 27.238C27.8227 27.3727 27.3886 27.7919 27.2689 28.3457L26.745 30.5462C26.4605 31.7437 24.9337 32.103 24.1403 31.1599L17 22.9568L9.85968 31.1749C9.06632 32.118 7.53947 31.7587 7.25505 30.5612L6.73113 28.3607C6.59641 27.8069 6.1623 27.3727 5.62341 27.253L3.1535 26.6692C2.01585 26.3998 1.61168 24.9777 2.43498 24.1544L8.27295 18.3164C9.88962 20.7115 12.4493 22.403 15.4283 22.8371C15.9372 22.9269 16.4611 22.9718 17 22.9718C17.5389 22.9718 18.0628 22.9269 18.5718 22.8371C21.5507 22.403 24.1104 20.7115 25.727 18.3164L31.565 24.1544C32.3883 24.9627 31.9842 26.3848 30.8465 26.6542Z" stroke="#2B124C" stroke-width="3" stroke-linecap="round" stroke-linejoin="round"/>
<path d="M17.8682 7.95772L18.7514 9.72406C18.8712 9.96357 19.1855 10.2031 19.4699 10.248L21.0716 10.5174C22.0895 10.6821 22.3291 11.4306 21.5956 12.164L20.3531 13.4065C20.1436 13.616 20.0238 14.0202 20.0986 14.3196L20.4579 15.8614C20.7423 17.0739 20.0987 17.5529 19.0209 16.9093L17.524 16.0261C17.2545 15.8614 16.8054 15.8614 16.536 16.0261L15.0391 16.9093C13.9613 17.538 13.3176 17.0739 13.602 15.8614L13.9613 14.3196C14.0212 14.0352 13.9163 13.616 13.7068 13.4065L12.4643 12.164C11.7308 11.4306 11.9704 10.6971 12.9883 10.5174L14.59 10.248C14.8594 10.2031 15.1738 9.96357 15.2936 9.72406L16.1767 7.95772C16.6108 6.99969 17.3892 6.99969 17.8682 7.95772Z" stroke="#2B124C" stroke-width="3" stroke-linecap="round" stroke-linejoin="round"/>
</svg>
