<svg width="287" height="349" viewBox="0 0 287 349" fill="none" xmlns="http://www.w3.org/2000/svg">
<path d="M1 57.5387V88.3254H22.102V80.4809H30.9231V57.5046L1 57.5387ZM29.5828 71.2559H27.4196V72.6364H29.5828V79.0997H22.102V77.5728H20.7617V86.9475H8.07183V85.4212H6.73526V86.9449H2.34093V80.4809H6.73526V81.9815H8.07495V77.5632H6.73526V79.1004H2.34093V72.637H6.73526V74.1813H8.07495V72.637H10.7761V71.2565H2.34031V58.9173H16.7053V71.2559H14.029V72.6364H20.7617V74.171H22.102V72.6364H24.2216V71.2559H18.045V58.8858H29.5822L29.5828 71.2559Z" fill="#2B124C" fill-opacity="0.7"/>
<path d="M22.102 88.3254H1V57.5387L30.9231 57.5046V80.4809H22.102V88.3254ZM2.34031 86.9456H20.7617V79.1004H29.5828V58.8864L2.34031 58.9173V86.9456Z" fill="#2B124C"/>
<path d="M33.8103 18.303V8.84048C33.8103 7.35351 32.6291 6.1369 31.1854 6.1369H4.93709C3.49343 6.1369 2.31226 7.35351 2.31226 8.84048V18.303" stroke="#2B124C" stroke-width="2" stroke-miterlimit="10"/>
<path d="M7.56201 18.303V15.5994C7.56201 14.1124 8.74319 12.8958 10.1868 12.8958H15.4365C16.8802 12.8958 18.0613 14.1124 18.0613 15.5994V18.303" stroke="#2B124C" stroke-width="2" stroke-miterlimit="10"/>
<path d="M18.0613 18.303V15.5994C18.0613 14.1124 19.2425 12.8958 20.6861 12.8958H25.9358C27.3794 12.8958 28.5606 14.1124 28.5606 15.5994V18.303" stroke="#2B124C" stroke-width="2" stroke-miterlimit="10"/>
<path d="M1 21.0066V31.8209H4.93725V29.1174H31.1856V31.8209H35.1228V21.0066C35.1228 19.5197 33.9417 18.303 32.498 18.303H3.62483C2.18118 18.303 1 19.5197 1 21.0066Z" stroke="#2B124C" stroke-width="2" stroke-miterlimit="10"/>
<path d="M3.36235 123.067L8.08705 123.472V116.173L3.36235 111.306V123.067ZM8.08705 125.094L3.36235 125.5V137.261L8.08705 132.394V125.094ZM25.411 123.472L30.1357 123.067V111.306L25.411 116.173V123.472ZM30.1357 125.5L25.411 125.094V132.394L30.1357 137.261V125.5ZM32.498 108.873V139.694H30.1357L25.411 134.827H8.08705L3.36235 139.694H1V108.873H3.36235L8.08705 113.739H25.411L30.1357 108.873H32.498ZM23.0486 116.173H10.4494V132.394H23.0486V116.173Z" fill="#2B124C"/>
<path d="M1.00067 175.261C1.00067 175.261 0.871348 178.587 4.20497 181.207L6.07152 182.364C6.07152 182.364 5.43733 187.304 5.45509 189.928C5.45927 190.542 5.50161 190.979 7.57231 191.059H13.7632C13.7632 191.059 15.3265 191.156 15.3569 190.105C15.4144 188.114 15.3569 182.254 15.3569 182.254C15.3569 182.254 17.1654 180.723 17.5678 180.037C17.5678 180.037 19.3721 177.402 18.6059 175.377C18.6059 175.377 18.0075 175.298 15.9438 175.293L3.83766 175.267L1.00067 175.261Z" stroke="#2B124C" stroke-width="2" stroke-miterlimit="10" stroke-linecap="round" stroke-linejoin="round"/>
<path d="M15.4606 171.63H1.53731C1.53731 171.63 0.937473 171.681 1.00883 172.73" stroke="#2B124C" stroke-width="2" stroke-miterlimit="10" stroke-linecap="round" stroke-linejoin="round"/>
<path d="M17.9919 191.004H22.4615C20.7307 184.864 21.3146 179.48 21.3146 179.48C21.3146 179.48 21.4265 176.297 23.5525 175.634C23.5525 175.634 25.9583 174.914 26.7695 174.424V162.904H18.0167V172.272" stroke="#2B124C" stroke-width="2" stroke-miterlimit="10" stroke-linecap="round" stroke-linejoin="round"/>
<path d="M17.9473 160.241H26.9326" stroke="#2B124C" stroke-width="2" stroke-miterlimit="10" stroke-linecap="round" stroke-linejoin="round"/>
<path d="M24.9022 216.932C25.1134 216.697 25.467 216.682 25.6954 216.899C25.9237 217.117 25.9384 217.481 25.7273 217.716L21.1305 222.84L21.1232 222.85C20.5608 223.551 20.1753 224.198 20.0034 224.79C19.8512 225.314 19.8733 225.789 20.0992 226.204C20.2195 226.427 20.1802 226.7 20.0206 226.879L17.8377 229.313C17.624 229.072 17.4546 228.877 17.3417 228.751C17.2901 228.68 17.2311 228.612 17.1698 228.546L17.1649 228.551C17.1354 228.518 17.1035 228.488 17.0715 228.458L18.9377 226.376C18.7192 225.774 18.7217 225.134 18.923 224.454C19.1391 223.715 19.5983 222.929 20.2588 222.109C20.2735 222.089 20.2858 222.069 20.303 222.051L24.8973 216.927L24.9022 216.932ZM15.0285 230.658C14.8223 230.42 14.8419 230.054 15.0727 229.841C15.3036 229.629 15.6596 229.649 15.8659 229.887C18.1765 232.552 25.3197 240.441 27.2988 243.39C29.909 247.196 25.8672 248.395 24.5265 247.009C21.1772 243.673 14.066 235.168 10.9401 231.561C9.81546 232.052 8.72275 232.128 7.62513 231.804C6.44402 231.457 5.28746 230.645 4.11372 229.399L4.09899 229.383C3.20518 228.412 2.50535 227.454 1.99951 226.505C1.4814 225.529 1.16463 224.563 1.05168 223.604C0.931358 222.572 1.02467 221.611 1.29478 220.759C1.61154 219.757 2.17386 218.91 2.91051 218.28C3.65208 217.648 4.56308 217.238 5.57967 217.112C6.42437 217.008 7.3452 217.097 8.29794 217.418C9.61656 217.86 11.1537 218.961 12.4281 220.372C13.3686 221.411 14.174 222.628 14.6528 223.88C15.1513 225.185 15.3036 226.535 14.9033 227.8C14.6676 228.549 14.2403 229.252 13.5773 229.887C13.349 230.104 12.9954 230.089 12.7842 229.856C12.573 229.621 12.5877 229.257 12.8137 229.039C13.3269 228.546 13.6559 228.007 13.8352 227.438C14.1446 226.46 14.0144 225.375 13.6068 224.307C13.1795 223.189 12.4551 222.097 11.6055 221.158C10.4564 219.889 9.09353 218.905 7.94435 218.518C7.15612 218.255 6.40227 218.179 5.71227 218.265C4.91177 218.366 4.19475 218.682 3.62262 219.176C3.04802 219.669 2.60848 220.334 2.35556 221.126C2.13702 221.816 2.0609 222.61 2.16158 223.468C2.25734 224.277 2.52991 225.104 2.97681 225.949C3.44582 226.816 4.08917 227.694 4.91668 228.592L4.92159 228.599C5.95782 229.699 6.95231 230.408 7.93698 230.696C8.86762 230.969 9.81546 230.863 10.805 230.355C11.0309 230.22 11.3232 230.266 11.5024 230.473C14.5522 233.992 21.9703 242.846 25.2558 246.127C26.6825 246.726 27.4732 245.987 26.7905 244.685C25.7273 242.651 16.5927 232.469 15.0285 230.658ZM12.0672 235.744L4.90686 243.724C4.89212 243.739 4.87985 243.754 4.86266 243.769C3.8166 244.933 5.66807 246.627 6.81726 245.494L13.7713 237.742L14.5178 238.615L7.61776 246.306C7.60303 246.324 7.58829 246.339 7.56865 246.357C7.15612 246.713 6.74114 246.946 6.32124 247.042C5.88907 247.143 5.46426 247.098 5.05664 246.901C4.98789 246.873 4.92405 246.837 4.86757 246.784L3.87799 245.841C3.86326 245.826 3.84853 245.813 3.83379 245.795C3.45073 245.34 3.26902 244.854 3.31813 244.341C3.36479 243.855 3.61525 243.382 4.08917 242.927L11.3182 234.869L12.0672 235.744ZM19.5713 231.278L19.9961 230.805C20.2073 230.57 20.5633 230.554 20.7892 230.772C21.0151 230.989 21.0323 231.354 20.8211 231.589L20.33 232.135L19.5713 231.278ZM26.6481 218.624C26.8593 218.389 27.2129 218.374 27.4412 218.591C27.6696 218.809 27.6843 219.173 27.4732 219.408L23.4436 223.903C23.2325 224.138 22.8789 224.153 22.6505 223.935C22.4221 223.718 22.4074 223.354 22.6186 223.119L26.6481 218.624ZM28.3915 220.286C28.6027 220.051 28.9563 220.035 29.1847 220.253C29.413 220.47 29.4278 220.835 29.2166 221.07L25.1895 225.562C24.9783 225.797 24.6247 225.812 24.3964 225.595C24.168 225.377 24.1533 225.013 24.3645 224.778L28.3915 220.286ZM30.1988 222.013C30.41 221.778 30.7636 221.763 30.9919 221.98C31.2203 222.198 31.235 222.565 31.0238 222.797L26.4271 227.924C26.4099 227.942 26.3927 227.957 26.3755 227.975C25.3295 229.012 24.3301 229.611 23.3749 229.78C22.3386 229.965 21.3884 229.662 20.5166 228.877C20.2834 228.668 20.2613 228.301 20.4626 228.063C20.6664 227.823 21.0225 227.8 21.2533 228.007C21.8549 228.549 22.4983 228.761 23.1784 228.637C23.9102 228.508 24.7156 228.01 25.5947 227.137L25.5996 227.132L30.1939 222.011L30.1988 222.013Z" fill="#2B124C"/>
<path d="M279.347 69.7051C277.118 69.7051 253.779 69.7051 253.165 69.7051V66.3341H255.035C255.551 66.3341 255.97 65.9028 255.97 65.3709V62.9631C255.97 62.4312 255.551 61.9999 255.035 61.9999C254.518 61.9999 254.1 62.4312 254.1 62.9631V64.4078H253.165V56.0558C253.165 54.4965 255.009 53.7042 256.083 54.8105L257.073 55.8303C256.289 57.2389 256.479 59.071 257.646 60.2731L258.114 60.7547C258.479 61.1308 259.071 61.1308 259.436 60.7547L263.177 56.9021C263.542 56.526 263.542 55.9161 263.177 55.54L262.709 55.0584C261.52 53.8334 259.738 53.6703 258.395 54.4675L257.406 53.4485C256.73 52.752 255.831 52.3684 254.874 52.3684C252.9 52.3684 251.294 54.0226 251.294 56.0558V69.7051C250.778 69.7051 250.359 70.1364 250.359 70.6683C250.359 71.2002 250.778 71.6314 251.294 71.6314V73.5577C251.294 76.1997 252.448 78.5689 254.264 80.1602L252.958 81.5585C252.385 82.1721 252.815 83.1892 253.632 83.1892C253.878 83.1892 254.123 83.0902 254.306 82.8936L255.838 81.2525C256.998 81.8741 258.315 82.2261 259.71 82.2261H270.932C272.327 82.2261 273.644 81.8741 274.803 81.2525L276.336 82.8936C276.693 83.2759 277.284 83.29 277.658 82.9202C278.03 82.5515 278.042 81.9418 277.684 81.5584L276.378 80.1601C278.194 78.5689 279.347 76.1997 279.347 73.5577V71.6314C279.864 71.6314 280.282 71.2002 280.282 70.6683C280.282 70.1364 279.864 69.7051 279.347 69.7051ZM261.178 56.2368L258.791 58.6955C258.309 58.0077 258.368 57.0392 258.969 56.4204C259.575 55.7958 260.515 55.7427 261.178 56.2368ZM277.477 73.5577C277.477 77.2753 274.541 80.2998 270.932 80.2998H259.71C256.101 80.2998 253.165 77.2753 253.165 73.5577V71.6314H277.477V73.5577Z" fill="#2B124C"/>
<path d="M267.782 27.7112L267.799 27.6915" stroke="#2B124C" stroke-width="2" stroke-linecap="round" stroke-linejoin="round"/>
<path d="M250.359 7.05649C260.813 -1.01883 274.751 -1.01883 285.204 7.05649" stroke="#2B124C" stroke-width="2" stroke-linecap="round" stroke-linejoin="round"/>
<path d="M255.586 14.2344C262.555 8.85089 273.008 8.85089 279.977 14.2344" stroke="#2B124C" stroke-width="2" stroke-linecap="round" stroke-linejoin="round"/>
<path d="M261.684 20.5157C265.605 18.0034 269.959 18.0026 273.88 20.5157" stroke="#2B124C" stroke-width="2" stroke-linecap="round" stroke-linejoin="round"/>
<path d="M275.404 123.859L278.983 120.174M278.983 120.174L282.56 116.489M278.983 120.174L275.404 116.489M278.983 120.174L282.56 123.859" stroke="#2B124C" stroke-width="2" stroke-linecap="round" stroke-linejoin="round"/>
<path d="M250.359 123.859V116.489C250.359 115.471 251.16 114.646 252.148 114.646H256.973C257.327 114.646 257.672 114.538 257.966 114.337L265.467 109.186C266.656 108.369 268.249 109.247 268.249 110.719V129.629C268.249 131.101 266.656 131.979 265.467 131.162L257.966 126.011C257.672 125.809 257.327 125.702 256.973 125.702H252.148C251.16 125.702 250.359 124.877 250.359 123.859Z" stroke="#2B124C" stroke-width="2"/>
<path d="M263.007 160.095H263.945V168.099H263.007V160.095Z" fill="#2B124C"/>
<path d="M263.476 161.16L260.5 158.132L263.476 155.104L266.453 158.132L263.476 161.16ZM261.834 158.132L263.476 159.802L265.118 158.132L263.476 156.462L261.834 158.132Z" fill="#2B124C"/>
<path d="M263.476 165.69L259.056 161.194L259.715 160.507L263.476 164.332L267.237 160.507L267.896 161.194L263.476 165.69Z" fill="#2B124C"/>
<path d="M254.839 164.885L261.652 168.887L261.188 169.726L254.374 165.725L254.839 164.885Z" fill="#2B124C"/>
<path d="M251.45 166.948L250.359 162.806L254.42 161.699L255.511 165.84L251.45 166.948ZM251.511 163.491L252.111 165.768L254.359 165.156L253.759 162.879L251.511 163.491Z" fill="#2B124C"/>
<path d="M253.324 169.753L253.084 168.819L258.215 167.42L256.841 162.205L257.747 161.952L259.368 168.105L253.324 169.753Z" fill="#2B124C"/>
<path d="M261.187 171.303L261.652 172.142L254.838 176.144L254.374 175.304L261.187 171.303Z" fill="#2B124C"/>
<path d="M254.42 179.33L250.359 178.223L251.45 174.082L255.511 175.189L254.42 179.33ZM251.511 177.538L253.758 178.151L254.358 175.874L252.111 175.261L251.511 177.538Z" fill="#2B124C"/>
<path d="M257.747 179.077L256.841 178.824L258.215 173.609L253.084 172.21L253.324 171.277L259.368 172.924L257.747 179.077Z" fill="#2B124C"/>
<path d="M263.008 172.931H263.946V180.934H263.008V172.931Z" fill="#2B124C"/>
<path d="M263.476 185.925L260.499 182.897L263.476 179.87L266.452 182.898L263.476 185.925ZM261.834 182.897L263.476 184.567L265.117 182.897L263.476 181.227L261.834 182.897Z" fill="#2B124C"/>
<path d="M267.237 180.523L263.476 176.697L259.716 180.523L259.056 179.836L263.476 175.339L267.896 179.836L267.237 180.523Z" fill="#2B124C"/>
<path d="M265.765 171.303L272.578 175.304L272.114 176.143L265.301 172.142L265.765 171.303Z" fill="#2B124C"/>
<path d="M272.532 179.33L271.441 175.189L275.502 174.082L276.593 178.223L272.532 179.33ZM272.593 175.874L273.193 178.151L275.441 177.538L274.841 175.262L272.593 175.874Z" fill="#2B124C"/>
<path d="M269.206 179.077L267.585 172.924L273.629 171.277L273.869 172.21L268.737 173.609L270.112 178.824L269.206 179.077Z" fill="#2B124C"/>
<path d="M272.113 164.884L272.578 165.723L265.766 169.726L265.301 168.887L272.113 164.884Z" fill="#2B124C"/>
<path d="M275.503 166.948L271.441 165.841L272.533 161.699L276.593 162.806L275.503 166.948ZM272.594 165.156L274.841 165.769L275.441 163.492L273.194 162.879L272.594 165.156Z" fill="#2B124C"/>
<path d="M273.629 169.753L267.585 168.106L269.206 161.952L270.112 162.205L268.737 167.421L273.869 168.819L273.629 169.753Z" fill="#2B124C"/>
<path d="M264.964 172.94H262.195L260.805 170.492L262.195 168.044H264.964L266.354 170.492L264.964 172.94ZM262.733 171.974H264.426L265.267 170.492L264.426 169.01H262.733L261.892 170.492L262.733 171.974Z" fill="#2B124C"/>
<path d="M257.341 211.609C256.193 211.609 255.247 212.583 255.247 213.766V215.923C255.247 216.3 255.375 216.685 255.64 216.957C255.836 217.16 256.087 217.289 256.36 217.339C256.256 217.424 256.128 217.488 255.967 217.519H255.945C252.773 218.235 250.359 221.118 250.359 224.621V226.711C250.359 227.615 250.981 228.259 251.756 228.576V237.79C250.981 238.108 250.359 238.751 250.359 239.656V243.97C250.359 245.945 251.933 247.566 253.85 247.566H265.022C266.939 247.566 268.513 245.945 268.513 243.97V239.656C268.513 238.751 267.891 238.108 267.116 237.79V228.576C267.891 228.259 268.513 227.615 268.513 226.711V224.621C268.513 221.118 266.099 218.235 262.927 217.519H262.905C262.744 217.488 262.616 217.424 262.513 217.339C262.785 217.289 263.036 217.16 263.233 216.957C263.497 216.685 263.625 216.3 263.625 215.923V213.766C263.625 212.583 262.679 211.609 261.531 211.609H257.341ZM257.341 213.047H261.531C261.918 213.047 262.229 213.367 262.229 213.766V215.923H256.643V213.766C256.643 213.367 256.954 213.047 257.341 213.047ZM257.8 217.362H261.072C261.326 218.115 261.842 218.75 262.643 218.912V218.935H262.665C265.21 219.519 267.116 221.803 267.116 224.621V226.711C267.116 227.11 266.805 227.43 266.418 227.43H254.549V228.868H265.72V237.498H254.549V238.936H266.418C266.805 238.936 267.116 239.257 267.116 239.656V243.97C267.116 245.162 266.178 246.128 265.022 246.128H253.85C252.694 246.128 251.756 245.162 251.756 243.97V239.656C251.756 239.257 252.067 238.936 252.454 238.936H253.152V227.43H252.454C252.067 227.43 251.756 227.11 251.756 226.711V224.621C251.756 221.803 253.662 219.519 256.207 218.935C256.218 218.932 256.218 218.915 256.229 218.912C257.031 218.75 257.546 218.115 257.8 217.362Z" fill="#2B124C"/>
<path d="M20.7492 347.221C22.7939 347.221 24.4514 345.514 24.4514 343.408C24.4514 341.302 22.7939 339.594 20.7492 339.594C18.7046 339.594 17.0471 341.302 17.0471 343.408C17.0471 345.514 18.7046 347.221 20.7492 347.221Z" stroke="#2B124C" stroke-width="2" stroke-miterlimit="10"/>
<path d="M14.6344 341.87C15.0879 341.822 15.5321 341.774 15.9856 341.727C16.4854 341.67 16.9852 341.622 17.4942 341.584M3.79632 333.281C3.77781 331.774 3.79632 330.268 3.83335 328.752C3.87637 327.731 4.12095 326.73 4.55215 325.81C4.98336 324.889 5.59214 324.069 6.34134 323.399C7.09054 322.729 7.96444 322.224 8.9097 321.913C9.85496 321.602 10.8517 321.494 11.8392 321.593C16.3977 322.172 20.9922 322.395 25.5834 322.26C27.7307 322.165 29.8686 321.927 31.9973 321.679C33.9983 321.293 36.0669 321.698 37.7911 322.813C38.7814 323.474 39.5974 324.377 40.1659 325.441C40.7345 326.506 41.0379 327.699 41.049 328.914C41.0768 329.906 41.0953 334.587 40.9287 335.893C40.644 337.733 39.6979 339.395 38.2783 340.55C36.8586 341.705 35.0693 342.268 33.2654 342.127C31.0626 341.946 28.8598 341.65 26.6479 341.536C25.7408 341.488 24.8338 341.46 23.9268 341.441" stroke="#2B124C" stroke-width="2" stroke-miterlimit="10"/>
<path d="M36.2726 333.32C36.9146 333.32 37.4349 332.784 37.4349 332.122C37.4349 331.461 36.9146 330.925 36.2726 330.925C35.6307 330.925 35.1104 331.461 35.1104 332.122C35.1104 332.784 35.6307 333.32 36.2726 333.32Z" fill="black"/>
<path d="M14.7426 334.249C15.3845 334.249 15.9049 333.713 15.9049 333.052C15.9049 332.391 15.3845 331.855 14.7426 331.855C14.1007 331.855 13.5803 332.391 13.5803 333.052C13.5803 333.713 14.1007 334.249 14.7426 334.249Z" fill="black"/>
<path d="M20.3234 328.665C20.9653 328.665 21.4857 328.129 21.4857 327.467C21.4857 326.806 20.9653 326.27 20.3234 326.27C19.6815 326.27 19.1611 326.806 19.1611 327.467C19.1611 328.129 19.6815 328.665 20.3234 328.665Z" fill="black"/>
<path d="M30.9133 338.375C31.5552 338.375 32.0756 337.839 32.0756 337.178C32.0756 336.517 31.5552 335.981 30.9133 335.981C30.2714 335.981 29.751 336.517 29.751 337.178C29.751 337.839 30.2714 338.375 30.9133 338.375Z" fill="black"/>
<path d="M29.1791 330.138C30.0516 330.138 30.7589 329.409 30.7589 328.511C30.7589 327.612 30.0516 326.884 29.1791 326.884C28.3067 326.884 27.5994 327.612 27.5994 328.511C27.5994 329.409 28.3067 330.138 29.1791 330.138Z" stroke="#2B124C" stroke-width="2" stroke-miterlimit="10"/>
<path d="M10.6677 329.095C11.5401 329.095 12.2474 328.366 12.2474 327.468C12.2474 326.569 11.5401 325.84 10.6677 325.84C9.79518 325.84 9.08789 326.569 9.08789 327.468C9.08789 328.366 9.79518 329.095 10.6677 329.095Z" stroke="#2B124C" stroke-width="2" stroke-miterlimit="10"/>
<path d="M21.9033 337.256C22.7757 337.256 23.483 336.527 23.483 335.629C23.483 334.73 22.7757 334.002 21.9033 334.002C21.0308 334.002 20.3235 334.73 20.3235 335.629C20.3235 336.527 21.0308 337.256 21.9033 337.256Z" stroke="#2B124C" stroke-width="2" stroke-miterlimit="10"/>
<path d="M8.89514 336.654C8.72162 336.708 8.55139 336.773 8.38536 336.848C8.38633 336.686 8.3772 336.525 8.358 336.364C8.24241 335.619 7.91502 334.927 7.41721 334.374C6.91939 333.821 6.27353 333.432 5.56128 333.257C4.84904 333.082 4.1024 333.128 3.41579 333.39C2.72919 333.652 2.13345 334.118 1.70391 334.729C1.27437 335.34 1.03033 336.068 1.00265 336.822C0.974963 337.576 1.16488 338.321 1.54838 338.963C1.93187 339.606 2.49173 340.117 3.15715 340.431C3.82257 340.746 4.56366 340.851 5.28671 340.732C5.35166 340.721 5.40898 340.695 5.47222 340.681C5.35168 341.692 5.5489 342.716 6.03492 343.602C6.52095 344.489 7.27018 345.192 8.17261 345.608C9.07505 346.024 10.0831 346.13 11.0489 345.913C12.0147 345.695 12.8872 345.164 13.5384 344.398C14.1896 343.632 14.5852 342.671 14.6671 341.656C14.749 340.641 14.5129 339.626 13.9934 338.76C13.4739 337.893 12.6984 337.221 11.7808 336.842C10.8632 336.463 9.85184 336.397 8.89514 336.654Z" stroke="#2B124C" stroke-width="2" stroke-linecap="round" stroke-linejoin="round"/>
<path d="M33.4058 269.141H3.5045C2.1213 269.141 1 270.296 1 271.721V288.393C1 289.817 2.1213 290.972 3.5045 290.972H33.4058C34.789 290.972 35.9103 289.817 35.9103 288.393V271.721C35.9103 270.296 34.789 269.141 33.4058 269.141Z" stroke="#2B124C" stroke-width="2" stroke-linejoin="round"/>
<path d="M8.48071 294.825H28.4295H8.48071Z" fill="black"/>
<path d="M8.48071 294.825H28.4295" stroke="#2B124C" stroke-width="2" stroke-miterlimit="10" stroke-linecap="round"/>
<path d="M253.804 267.086C250.002 267.086 246.864 270.14 246.864 273.936V274.29C245.684 274.812 244.783 275.886 244.485 277.198C244.005 279.316 245.138 281.244 246.864 282.049V288.49C246.864 290.517 247.853 292.312 249.357 293.398V297.051C249.357 297.278 249.445 297.496 249.601 297.657C249.757 297.817 249.968 297.907 250.188 297.907H253.513C253.734 297.907 253.945 297.817 254.101 297.657C254.257 297.496 254.344 297.278 254.344 297.051V294.483H275.956V297.051C275.956 297.278 276.043 297.496 276.199 297.657C276.355 297.817 276.566 297.907 276.787 297.907H280.111C280.332 297.907 280.543 297.817 280.699 297.657C280.855 297.496 280.943 297.278 280.943 297.051V293.398C282.447 292.312 283.436 290.517 283.436 288.49V282.064C284.887 281.397 285.93 279.953 285.93 278.216C285.93 276.472 284.897 274.966 283.436 274.3V273.936C283.436 270.14 280.298 267.086 276.496 267.086H253.804ZM253.804 268.799H276.496C279.442 268.799 281.774 271.112 281.774 273.936V273.937C281.64 273.937 281.505 273.942 281.368 273.956C279.187 274.169 277.618 276.158 277.618 278.363V282.497H267.644C266.648 282.497 265.761 282.965 265.15 283.686C264.539 282.965 263.651 282.497 262.656 282.497H252.682V278.216C252.682 275.864 250.791 273.95 248.526 273.939V273.936C248.526 271.112 250.858 268.799 253.804 268.799ZM255.176 271.367C254.955 271.367 254.744 271.457 254.588 271.618C254.432 271.778 254.344 271.996 254.344 272.223C254.344 272.45 254.432 272.668 254.588 272.829C254.744 272.989 254.955 273.079 255.176 273.079C255.396 273.079 255.607 272.989 255.763 272.829C255.919 272.668 256.007 272.45 256.007 272.223C256.007 271.996 255.919 271.778 255.763 271.618C255.607 271.457 255.396 271.367 255.176 271.367ZM261.825 271.367C261.605 271.367 261.393 271.457 261.237 271.618C261.082 271.778 260.994 271.996 260.994 272.223C260.994 272.45 261.082 272.668 261.237 272.829C261.393 272.989 261.605 273.079 261.825 273.079C262.046 273.079 262.257 272.989 262.413 272.829C262.569 272.668 262.656 272.45 262.656 272.223C262.656 271.996 262.569 271.778 262.413 271.618C262.257 271.457 262.046 271.367 261.825 271.367ZM268.475 271.367C268.254 271.367 268.043 271.457 267.887 271.618C267.731 271.778 267.644 271.996 267.644 272.223C267.644 272.45 267.731 272.668 267.887 272.829C268.043 272.989 268.254 273.079 268.475 273.079C268.695 273.079 268.907 272.989 269.062 272.829C269.218 272.668 269.306 272.45 269.306 272.223C269.306 271.996 269.218 271.778 269.062 271.618C268.907 271.457 268.695 271.367 268.475 271.367ZM275.124 271.367C274.904 271.367 274.692 271.457 274.537 271.618C274.381 271.778 274.293 271.996 274.293 272.223C274.293 272.45 274.381 272.668 274.537 272.829C274.692 272.989 274.904 273.079 275.124 273.079C275.345 273.079 275.556 272.989 275.712 272.829C275.868 272.668 275.956 272.45 275.956 272.223C275.956 271.996 275.868 271.778 275.712 271.618C275.556 271.457 275.345 271.367 275.124 271.367ZM258.5 274.792C258.28 274.792 258.068 274.882 257.913 275.042C257.757 275.203 257.669 275.421 257.669 275.648C257.669 275.875 257.757 276.093 257.913 276.253C258.068 276.414 258.28 276.504 258.5 276.504C258.721 276.504 258.932 276.414 259.088 276.253C259.244 276.093 259.332 275.875 259.332 275.648C259.332 275.421 259.244 275.203 259.088 275.042C258.932 274.882 258.721 274.792 258.5 274.792ZM265.15 274.792C264.929 274.792 264.718 274.882 264.562 275.042C264.406 275.203 264.319 275.421 264.319 275.648C264.319 275.875 264.406 276.093 264.562 276.253C264.718 276.414 264.929 276.504 265.15 276.504C265.37 276.504 265.582 276.414 265.738 276.253C265.894 276.093 265.981 275.875 265.981 275.648C265.981 275.421 265.894 275.203 265.738 275.042C265.582 274.882 265.37 274.792 265.15 274.792ZM271.8 274.792C271.579 274.792 271.368 274.882 271.212 275.042C271.056 275.203 270.968 275.421 270.968 275.648C270.968 275.875 271.056 276.093 271.212 276.253C271.368 276.414 271.579 276.504 271.8 276.504C272.02 276.504 272.231 276.414 272.387 276.253C272.543 276.093 272.631 275.875 272.631 275.648C272.631 275.421 272.543 275.203 272.387 275.042C272.231 274.882 272.02 274.792 271.8 274.792ZM248.541 275.646C249.941 275.644 251.02 276.791 251.02 278.216V286.778C251.02 288.186 252.146 289.346 253.513 289.346H276.787C278.154 289.346 279.28 288.186 279.28 286.778V278.363C279.28 276.992 280.249 275.785 281.526 275.66C283.036 275.511 284.267 276.703 284.267 278.216C284.267 279.419 283.471 280.403 282.396 280.691C282.217 280.739 282.06 280.846 281.947 280.996C281.835 281.146 281.774 281.331 281.774 281.52V288.49C281.774 290.864 279.923 292.77 277.618 292.77H252.682C250.377 292.77 248.526 290.864 248.526 288.49V281.529C248.526 281.339 248.464 281.155 248.352 281.005C248.239 280.855 248.081 280.748 247.903 280.701C246.648 280.368 245.763 279.09 246.104 277.586C246.308 276.687 247.05 275.927 247.924 275.72C248.135 275.67 248.341 275.647 248.541 275.646ZM255.176 278.216C254.955 278.216 254.744 278.306 254.588 278.467C254.432 278.628 254.344 278.845 254.344 279.072C254.344 279.299 254.432 279.517 254.588 279.678C254.744 279.838 254.955 279.928 255.176 279.928C255.396 279.928 255.607 279.838 255.763 279.678C255.919 279.517 256.007 279.299 256.007 279.072C256.007 278.845 255.919 278.628 255.763 278.467C255.607 278.306 255.396 278.216 255.176 278.216ZM261.825 278.216C261.605 278.216 261.393 278.306 261.237 278.467C261.082 278.628 260.994 278.845 260.994 279.072C260.994 279.299 261.082 279.517 261.237 279.678C261.393 279.838 261.605 279.928 261.825 279.928C262.046 279.928 262.257 279.838 262.413 279.678C262.569 279.517 262.656 279.299 262.656 279.072C262.656 278.845 262.569 278.628 262.413 278.467C262.257 278.306 262.046 278.216 261.825 278.216ZM268.475 278.216C268.254 278.216 268.043 278.306 267.887 278.467C267.731 278.628 267.644 278.845 267.644 279.072C267.644 279.299 267.731 279.517 267.887 279.678C268.043 279.838 268.254 279.928 268.475 279.928C268.695 279.928 268.907 279.838 269.062 279.678C269.218 279.517 269.306 279.299 269.306 279.072C269.306 278.845 269.218 278.628 269.062 278.467C268.907 278.306 268.695 278.216 268.475 278.216ZM275.124 278.216C274.904 278.216 274.692 278.306 274.537 278.467C274.381 278.628 274.293 278.845 274.293 279.072C274.293 279.299 274.381 279.517 274.537 279.678C274.692 279.838 274.904 279.928 275.124 279.928C275.345 279.928 275.556 279.838 275.712 279.678C275.868 279.517 275.956 279.299 275.956 279.072C275.956 278.845 275.868 278.628 275.712 278.467C275.556 278.306 275.345 278.216 275.124 278.216ZM252.682 284.209H262.656C263.585 284.209 264.319 284.965 264.319 285.921V287.634H253.513C253.044 287.634 252.682 287.261 252.682 286.778V284.209ZM267.644 284.209H277.618V286.778C277.618 287.261 277.256 287.634 276.787 287.634H265.981V285.921C265.981 284.965 266.715 284.209 267.644 284.209ZM251.02 294.229C251.547 294.391 252.105 294.483 252.682 294.483V296.195H251.02V294.229ZM279.28 294.229V296.195H277.618V294.483C278.195 294.483 278.753 294.391 279.28 294.229Z" fill="#2B124C"/>
</svg>
