<svg width="19" height="17" viewBox="0 0 19 17" fill="none" xmlns="http://www.w3.org/2000/svg">
<path d="M10.7957 2.07425L12.1156 4.71396C12.2956 5.08143 12.7755 5.43388 13.1805 5.50137L15.5727 5.89883C17.1025 6.1538 17.4625 7.26367 16.3601 8.35854L14.5003 10.2183C14.1854 10.5333 14.0129 11.1407 14.1104 11.5757L14.6428 13.8779C15.0628 15.7002 14.0954 16.4051 12.483 15.4527L10.2408 14.1254C9.83584 13.8854 9.16842 13.8854 8.75596 14.1254L6.51369 15.4527C4.90887 16.4051 3.93398 15.6927 4.35394 13.8779L4.88638 11.5757C4.98386 11.1407 4.81138 10.5333 4.49642 10.2183L2.63663 8.35854C1.54175 7.26367 1.89421 6.1538 3.42404 5.89883L5.81627 5.50137C6.21373 5.43388 6.69367 5.08143 6.87365 4.71396L8.19353 2.07425C8.91345 0.641915 10.0833 0.641915 10.7957 2.07425Z" stroke="#FFE221" stroke-width="2" stroke-linecap="round" stroke-linejoin="round"/>
</svg>
