<svg width="40" height="42" viewBox="0 0 40 42" fill="none" xmlns="http://www.w3.org/2000/svg">
<path d="M11.2211 8.78177C10.421 8.78177 9.75751 8.11826 9.75751 7.31814V1.46363C9.75751 0.663512 10.421 0 11.2211 0C12.0213 0 12.6848 0.663512 12.6848 1.46363V7.31814C12.6848 8.11826 12.0213 8.78177 11.2211 8.78177Z" fill="#2B124C"/>
<path d="M26.8332 8.78177C26.0331 8.78177 25.3696 8.11826 25.3696 7.31814V1.46363C25.3696 0.663512 26.0331 0 26.8332 0C27.6333 0 28.2968 0.663512 28.2968 1.46363V7.31814C28.2968 8.11826 27.6333 8.78177 26.8332 8.78177Z" fill="#2B124C"/>
<path d="M31.1265 40.7865C26.8723 40.7865 23.4181 37.3323 23.4181 33.078C23.4181 28.8237 26.8723 25.3696 31.1265 25.3696C35.3808 25.3696 38.835 28.8237 38.835 33.078C38.835 37.3323 35.3808 40.7865 31.1265 40.7865ZM31.1265 28.2968C28.492 28.2968 26.3453 30.4435 26.3453 33.078C26.3453 35.7125 28.492 37.8592 31.1265 37.8592C33.7611 37.8592 35.9077 35.7125 35.9077 33.078C35.9077 30.4435 33.7611 28.2968 31.1265 28.2968Z" fill="#2B124C"/>
<path d="M38.5412 41.9572C38.1705 41.9572 37.7997 41.8206 37.5069 41.5278L35.5554 39.5763C34.9895 39.0104 34.9895 38.0737 35.5554 37.5077C36.1214 36.9418 37.0581 36.9418 37.624 37.5077L39.5755 39.4592C40.1415 40.0252 40.1415 40.9619 39.5755 41.5278C39.2828 41.8206 38.912 41.9572 38.5412 41.9572Z" fill="#2B124C"/>
<path d="M12.1969 25.8573C11.9432 25.8573 11.6895 25.7987 11.4554 25.7011C11.2017 25.6036 10.987 25.467 10.8113 25.2913C10.7333 25.1938 10.6357 25.0962 10.5772 24.9986C10.4991 24.8815 10.4406 24.7644 10.4015 24.6473C10.343 24.5302 10.304 24.4131 10.2845 24.2961C10.2649 24.1595 10.2454 24.0228 10.2454 23.9058C10.2454 23.3984 10.4601 22.891 10.8113 22.5202C10.987 22.3446 11.2017 22.2079 11.4554 22.1104C12.1579 21.7981 13.0361 21.9738 13.5825 22.5202C13.9338 22.891 14.1484 23.3984 14.1484 23.9058C14.1484 24.0228 14.1289 24.1595 14.1094 24.2961C14.0899 24.4131 14.0509 24.5302 13.9923 24.6473C13.9533 24.7644 13.8947 24.8815 13.8167 24.9986C13.7386 25.0962 13.6606 25.1938 13.5825 25.2913C13.2117 25.6426 12.7043 25.8573 12.1969 25.8573Z" fill="#2B124C"/>
<path d="M19.0272 25.8572C18.5198 25.8572 18.0124 25.6426 17.6416 25.2913C17.2903 24.9205 17.0757 24.4326 17.0757 23.9057C17.0757 23.652 17.1342 23.3983 17.2318 23.1642C17.3294 22.93 17.466 22.7155 17.6416 22.5204C18.3637 21.7983 19.6712 21.7983 20.4128 22.5204C20.764 22.8911 20.9787 23.3983 20.9787 23.9057C20.9787 24.0228 20.9592 24.1596 20.9397 24.2962C20.9201 24.4133 20.8811 24.5302 20.8226 24.6473C20.7835 24.7644 20.725 24.8815 20.6469 24.9986C20.5689 25.0962 20.4908 25.1937 20.4128 25.2913C20.042 25.6426 19.5346 25.8572 19.0272 25.8572Z" fill="#2B124C"/>
<path d="M12.1969 32.6875C11.6895 32.6875 11.1821 32.4729 10.8113 32.1216C10.4601 31.7508 10.2454 31.2434 10.2454 30.736C10.2454 30.4823 10.304 30.2286 10.4015 29.9945C10.4991 29.7408 10.6357 29.5263 10.8113 29.3507C11.5334 28.6286 12.8605 28.6286 13.5825 29.3507C13.9338 29.7214 14.1484 30.2286 14.1484 30.736C14.1484 31.2434 13.9338 31.7508 13.5825 32.1216C13.2117 32.4729 12.7043 32.6875 12.1969 32.6875Z" fill="#2B124C"/>
<path d="M35.615 16.7631H2.4394C1.63928 16.7631 0.975769 16.0996 0.975769 15.2995C0.975769 14.4994 1.63928 13.8358 2.4394 13.8358H35.615C36.4151 13.8358 37.0786 14.4994 37.0786 15.2995C37.0786 16.0996 36.4151 16.7631 35.615 16.7631Z" fill="#2B124C"/>
<path d="M21.7007 41.9574H11.2212C4.09816 41.9574 0 37.8592 0 30.7362V14.1484C0 7.02542 4.09816 2.92726 11.2212 2.92726H26.8332C33.9562 2.92726 38.0544 7.02542 38.0544 14.1484V22.9302C38.0544 23.7303 37.3908 24.3938 36.5907 24.3938C35.7906 24.3938 35.1271 23.7303 35.1271 22.9302V14.1484C35.1271 8.56711 32.4145 5.85452 26.8332 5.85452H11.2212C5.63985 5.85452 2.92726 8.56711 2.92726 14.1484V30.7362C2.92726 36.3175 5.63985 39.0301 11.2212 39.0301H21.7007C22.5009 39.0301 23.1644 39.6936 23.1644 40.4937C23.1644 41.2939 22.5009 41.9574 21.7007 41.9574Z" fill="#2B124C"/>
</svg>
