<svg width="37" height="33" viewBox="0 0 37 33" fill="none" xmlns="http://www.w3.org/2000/svg">
<path d="M20.2131 28.9823C27.9248 28.9823 34.1764 23.4253 34.1764 16.5704C34.1764 9.71554 27.9248 4.15857 20.2131 4.15857C12.5014 4.15857 6.24976 9.71554 6.24976 16.5704C6.24976 23.4253 12.5014 28.9823 20.2131 28.9823Z" fill="#E5EFEF"/>
<path d="M4.42847 2V3.07929" stroke="#4C241D" stroke-width="2.3014" stroke-linecap="round" stroke-linejoin="round"/>
<path d="M4.42847 5.23788V6.31718" stroke="#4C241D" stroke-width="2.3014" stroke-linecap="round" stroke-linejoin="round"/>
<path d="M2 4.15857H3.2142" stroke="#4C241D" stroke-width="2.3014" stroke-linecap="round" stroke-linejoin="round"/>
<path d="M5.64258 4.15857H6.85678" stroke="#4C241D" stroke-width="2.3014" stroke-linecap="round" stroke-linejoin="round"/>
<path d="M27.8017 6.31715C28.6399 6.31715 29.3194 5.71314 29.3194 4.96804C29.3194 4.22295 28.6399 3.61893 27.8017 3.61893C26.9635 3.61893 26.2839 4.22295 26.2839 4.96804C26.2839 5.71314 26.9635 6.31715 27.8017 6.31715Z" stroke="#4C241D" stroke-width="2.3014" stroke-linecap="round" stroke-linejoin="round"/>
<path d="M12.716 6.91077C12.716 7.02487 12.6779 7.1364 12.6066 7.23127C12.5353 7.32614 12.4339 7.40008 12.3153 7.44374C12.1967 7.48741 12.0662 7.49883 11.9403 7.47657C11.8145 7.45431 11.6988 7.39937 11.6081 7.31869C11.5173 7.23801 11.4555 7.13522 11.4304 7.02332C11.4054 6.91141 11.4183 6.79542 11.4674 6.69001C11.5165 6.5846 11.5997 6.4945 11.7064 6.43111C11.8131 6.36773 11.9386 6.33389 12.067 6.33389C12.2391 6.33389 12.4042 6.39467 12.5259 6.50286C12.6476 6.61104 12.716 6.75778 12.716 6.91077Z" fill="#4C241D"/>
<path d="M37.0001 7.99006C37.0001 8.10416 36.9621 8.21569 36.8908 8.31056C36.8194 8.40542 36.7181 8.47936 36.5995 8.52303C36.4809 8.56669 36.3504 8.57811 36.2245 8.55586C36.0986 8.5336 35.983 8.47865 35.8922 8.39798C35.8015 8.3173 35.7397 8.21451 35.7146 8.1026C35.6896 7.9907 35.7024 7.87471 35.7516 7.7693C35.8007 7.66388 35.8839 7.57379 35.9906 7.5104C36.0973 7.44701 36.2228 7.41318 36.3511 7.41318C36.5233 7.41318 36.6883 7.47396 36.81 7.58214C36.9318 7.69033 37.0001 7.83706 37.0001 7.99006Z" fill="#4C241D"/>
<path d="M14.3241 30.4393C13.698 29.8827 13.3462 29.1278 13.3462 28.3406C13.3462 27.5535 13.698 26.7986 14.3241 26.242L28.0598 14.0341C28.686 13.4775 29.5353 13.1648 30.4208 13.1648C31.3064 13.1648 32.1556 13.4775 32.7818 14.0341C33.408 14.5907 33.7598 15.3456 33.7598 16.1328C33.7598 16.9199 33.408 17.6748 32.7818 18.2315L19.0443 30.4393C18.4182 30.9954 17.5693 31.3078 16.6842 31.3078C15.7991 31.3078 14.9502 30.9954 14.3241 30.4393Z" fill="#BF7E68" stroke="#4C241D" stroke-width="2.3014" stroke-linecap="round" stroke-linejoin="round"/>
<path d="M8.67822 25.2048V31.1409" stroke="#4C241D" stroke-width="2.3014" stroke-linecap="round" stroke-linejoin="round"/>
<path d="M6.24976 31.6805H11.1066" stroke="#4C241D" stroke-width="2.3014" stroke-linecap="round" stroke-linejoin="round"/>
<path d="M2.822 18.0987C1.50945 21.4812 4.0872 25.1815 8.10379 25.4141C8.24909 25.4228 8.3958 25.4271 8.54393 25.4271C9.40272 25.4291 10.2537 25.2825 11.0494 24.9954C12.4226 24.4686 13.5326 23.5149 14.1715 22.3129C14.8104 21.1109 14.9344 19.7431 14.5202 18.4657L13.1354 13.8722H4.412L2.822 18.0987Z" fill="white" stroke="#4C241D" stroke-width="2.3014" stroke-linecap="round" stroke-linejoin="round"/>
<path d="M2.52271 20.567C2.66711 21.8281 3.30498 23.0042 4.32505 23.89C5.34513 24.7758 6.68267 25.3152 8.10439 25.4141C8.24969 25.4228 8.39641 25.4271 8.54454 25.4271C9.40332 25.4291 10.2543 25.2825 11.05 24.9954C12.4232 24.4686 13.5332 23.5149 14.1721 22.3129C14.811 21.1109 14.935 19.7431 14.5208 18.4657L14.4195 18.1419C12.6728 18.5991 11.0049 19.2672 9.46248 20.1272C6.37112 21.723 4.00707 21.2718 2.52271 20.567Z" fill="#F53E28" stroke="#4C241D" stroke-width="2.3014" stroke-linecap="round" stroke-linejoin="round"/>
<path d="M25.9021 15.9504L29.9266 16.0308" stroke="#4C241D" stroke-width="2.3014" stroke-linecap="round" stroke-linejoin="round"/>
<path d="M21.6523 19.7279L25.6768 19.8083" stroke="#4C241D" stroke-width="2.3014" stroke-linecap="round" stroke-linejoin="round"/>
<path d="M17.4028 23.5054L20.8202 23.5463" stroke="#4C241D" stroke-width="2.3014" stroke-linecap="round" stroke-linejoin="round"/>
<path d="M14.1443 26.7509L17.7845 26.8237" stroke="#4C241D" stroke-width="2.3014" stroke-linecap="round" stroke-linejoin="round"/>
<path d="M22.0344 25.2048H34.7836V31.1409H22.0344V25.2048Z" fill="#D9BE6F" stroke="#4C241D" stroke-width="2.3014" stroke-linecap="round" stroke-linejoin="round"/>
<path d="M25.677 21.9669L22.0344 25.2048H27.4983V28.1728C27.4983 28.3875 27.5943 28.5934 27.7651 28.7452C27.9358 28.897 28.1675 28.9823 28.409 28.9823C28.6505 28.9823 28.8821 28.897 29.0529 28.7452C29.2237 28.5934 29.3196 28.3875 29.3196 28.1728V26.5539C29.3196 26.7686 29.4156 26.9745 29.5864 27.1263C29.7571 27.2781 29.9888 27.3633 30.2303 27.3633C30.4718 27.3633 30.7034 27.2781 30.8742 27.1263C31.045 26.9745 31.1409 26.7686 31.1409 26.5539V25.2048H34.7836L25.677 21.9669Z" fill="#FFCE56" stroke="#4C241D" stroke-width="2.3014" stroke-linecap="round" stroke-linejoin="round"/>
</svg>
