<svg width="40" height="40" viewBox="0 0 40 40" fill="none" xmlns="http://www.w3.org/2000/svg">
<path d="M1.40436 40C1.03236 40 0.678895 39.8512 0.418491 39.5909C0.0650842 39.2376 -0.0836257 38.7169 0.0465767 38.2334L2.39024 29.4746C0.82781 26.5737 0.00933877 23.3008 0.00933877 19.9907C0.00933877 8.96329 8.9747 0 20.0046 0C31.0346 0 40 8.96329 40 19.9907C40 31.0181 31.0346 39.9814 20.0046 39.9814C16.638 39.9814 13.3458 39.1446 10.407 37.5453L1.77639 39.9442C1.64619 39.9814 1.53457 40 1.40436 40ZM10.5929 34.6629C10.8347 34.6629 11.0766 34.7375 11.2998 34.8491C13.9224 36.3926 16.9356 37.2106 20.0046 37.2106C29.4908 37.2106 37.2099 29.4932 37.2099 20.0093C37.2099 10.5254 29.4908 2.80802 20.0046 2.80802C10.5185 2.80802 2.79939 10.5254 2.79939 20.0093C2.79939 23.0404 3.59919 25.9972 5.10581 28.6006C5.29182 28.9168 5.34766 29.3073 5.25465 29.6606L3.39462 36.6155L10.2395 34.7187C10.3511 34.6815 10.4813 34.6629 10.5929 34.6629Z" fill="#DFB6B2"/>
<path d="M25.1013 30.7199C23.948 30.7199 22.7576 30.4595 21.5114 29.9203C20.3396 29.4182 19.1677 28.7487 18.0331 27.9119C16.9171 27.0937 15.8198 26.1639 14.8154 25.1597C13.811 24.1369 12.8809 23.0583 12.0624 21.9426C11.2254 20.771 10.5558 19.6181 10.0722 18.4837C9.5514 17.2564 9.29102 16.0476 9.29102 14.8947C9.29102 14.0764 9.43978 13.2954 9.71879 12.5702C10.0164 11.8077 10.5 11.1196 11.1324 10.5246C12.3229 9.35303 14.0342 8.92536 15.392 9.57622C15.857 9.78077 16.2476 10.1155 16.5453 10.5618L18.7027 13.5929C18.9259 13.8905 19.0935 14.2066 19.2237 14.5227C19.3725 14.8946 19.4655 15.2666 19.4655 15.6199C19.4655 16.1034 19.3351 16.5869 19.0747 17.0146C18.9073 17.2935 18.6655 17.6283 18.3493 17.9444L18.1075 18.2048C18.2191 18.3535 18.3493 18.5395 18.5539 18.7626C18.9445 19.2089 19.3723 19.6924 19.8374 20.1573C20.3024 20.6036 20.7674 21.0499 21.2324 21.4405C21.4556 21.6264 21.6418 21.7752 21.7906 21.8682L22.0508 21.6078C22.3856 21.2731 22.7206 21.0128 23.0554 20.8454C23.6692 20.4549 24.6176 20.3619 25.4547 20.7152C25.7523 20.8268 26.0499 20.9942 26.3661 21.2173L29.4725 23.4116C29.9003 23.7092 30.2349 24.1183 30.4581 24.5832C30.6442 25.0481 30.7187 25.4572 30.7187 25.8849C30.7187 26.4428 30.5884 26.9821 30.3465 27.5028C30.1047 27.9863 29.8257 28.414 29.4909 28.8045C28.8957 29.4553 28.2077 29.9388 27.4637 30.255C26.7197 30.5711 25.9197 30.7199 25.1013 30.7199ZM14.0341 12.0866C13.9225 12.0866 13.5506 12.0866 13.0856 12.5515C12.7322 12.8863 12.4903 13.2396 12.3229 13.6301C12.1555 14.0207 12.0811 14.467 12.0811 14.9133C12.0811 15.6943 12.2671 16.5311 12.6391 17.4237C13.0297 18.3535 13.6063 19.3391 14.3131 20.3247C15.0386 21.3103 15.857 22.2959 16.7685 23.2071C17.6799 24.0997 18.6469 24.9365 19.6514 25.6804C20.6186 26.387 21.6046 26.9449 22.5904 27.3726C24.004 27.9863 25.3059 28.135 26.3661 27.6887C26.7381 27.54 27.0729 27.2796 27.4077 26.9449C27.5751 26.7589 27.7055 26.573 27.8171 26.3312C27.8729 26.201 27.9099 26.0523 27.9099 25.9221C27.9099 25.8849 27.9099 25.8291 27.8541 25.7176L24.7478 23.5604C24.6176 23.4674 24.4874 23.393 24.3758 23.3559C24.3014 23.393 24.19 23.4488 23.9854 23.6534L23.2786 24.36C22.7392 24.8993 21.8836 25.0481 21.1954 24.8063L20.8606 24.6576C20.4328 24.4344 19.949 24.0997 19.4095 23.6348C18.8887 23.1885 18.3867 22.7236 17.8473 22.2029C17.3265 21.6636 16.8615 21.1615 16.4151 20.6408C15.9314 20.0644 15.5966 19.5995 15.3734 19.2089L15.1688 18.7254C15.113 18.5395 15.0943 18.3349 15.0943 18.149C15.0943 17.6283 15.2804 17.1634 15.6338 16.7915L16.3407 16.0662C16.5453 15.8617 16.6197 15.7501 16.6569 15.6757C16.6011 15.5455 16.5267 15.4339 16.4337 15.3038L14.2573 12.2354L14.0341 12.0866Z" fill="#DFB6B2"/>
</svg>
