<svg width="34" height="34" viewBox="0 0 34 34" fill="none" xmlns="http://www.w3.org/2000/svg">
<path d="M12.0078 20.4947C12.0078 22.4297 13.4928 23.9897 15.3378 23.9897H19.1028C20.7078 23.9897 22.0128 22.6247 22.0128 20.9447C22.0128 19.1147 21.2178 18.4697 20.0328 18.0497L13.9878 15.9497C12.8028 15.5297 12.0078 14.8847 12.0078 13.0547C12.0078 11.3747 13.3128 10.0098 14.9178 10.0098H18.6828C20.5278 10.0098 22.0128 11.5698 22.0128 13.5048" stroke="#2B124C" stroke-width="3" stroke-linecap="round" stroke-linejoin="round"/>
<path d="M17 8V26" stroke="#2B124C" stroke-width="3" stroke-linecap="round" stroke-linejoin="round"/>
<path d="M17 32C25.2842 32 32 25.2842 32 17C32 8.71572 25.2842 2 17 2C8.71572 2 2 8.71572 2 17C2 25.2842 8.71572 32 17 32Z" stroke="#2B124C" stroke-width="3" stroke-linecap="round" stroke-linejoin="round"/>
</svg>
