<svg width="342" height="42" viewBox="0 0 342 42" fill="none" xmlns="http://www.w3.org/2000/svg">
<path d="M315 41H327C337 41 341 37 341 27V15C341 5 337 1 327 1H315C305 1 301 5 301 15V27C301 37 305 41 315 41Z" stroke="#DFB6B2" stroke-width="2" stroke-linecap="round" stroke-linejoin="round"/>
<path d="M321 28C324.866 28 328 24.866 328 21C328 17.134 324.866 14 321 14C317.134 14 314 17.134 314 21C314 24.866 317.134 28 321 28Z" stroke="#DFB6B2" stroke-width="2" stroke-linecap="round" stroke-linejoin="round"/>
<path d="M332.272 11H332.295" stroke="#DFB6B2" stroke-width="2" stroke-linecap="round" stroke-linejoin="round"/>
<path d="M102.404 41C102.032 41 101.679 40.8512 101.418 40.5909C101.065 40.2376 100.916 39.7169 101.047 39.2334L103.39 30.4746C101.828 27.5737 101.009 24.3008 101.009 20.9907C101.009 9.96329 109.975 1 121.005 1C132.035 1 141 9.96329 141 20.9907C141 32.0181 132.035 40.9814 121.005 40.9814C117.638 40.9814 114.346 40.1446 111.407 38.5453L102.776 40.9442C102.646 40.9814 102.535 41 102.404 41ZM111.593 35.6629C111.835 35.6629 112.077 35.7375 112.3 35.8491C114.922 37.3926 117.936 38.2106 121.005 38.2106C130.491 38.2106 138.21 30.4932 138.21 21.0093C138.21 11.5254 130.491 3.80802 121.005 3.80802C111.519 3.80802 103.799 11.5254 103.799 21.0093C103.799 24.0404 104.599 26.9972 106.106 29.6006C106.292 29.9168 106.348 30.3073 106.255 30.6606L104.395 37.6155L111.24 35.7187C111.351 35.6815 111.481 35.6629 111.593 35.6629Z" fill="#DFB6B2"/>
<path d="M126.101 31.7198C124.948 31.7198 123.758 31.4595 122.511 30.9202C121.34 30.4181 120.168 29.7486 119.033 28.9118C117.917 28.0936 116.82 27.1638 115.815 26.1596C114.811 25.1368 113.881 24.0583 113.063 22.9425C112.226 21.7709 111.556 20.618 111.072 19.4836C110.551 18.2563 110.291 17.0476 110.291 15.8946C110.291 15.0764 110.44 14.2953 110.719 13.5701C111.016 12.8077 111.5 12.1196 112.133 11.5245C113.323 10.353 115.034 9.92529 116.392 10.5762C116.857 10.7807 117.248 11.1154 117.545 11.5617L119.703 14.5929C119.926 14.8904 120.094 15.2065 120.224 15.5227C120.373 15.8946 120.466 16.2665 120.466 16.6199C120.466 17.1034 120.335 17.5868 120.075 18.0145C119.907 18.2935 119.666 18.6282 119.349 18.9443L119.108 19.2047C119.219 19.3535 119.349 19.5394 119.554 19.7626C119.945 20.2089 120.372 20.6924 120.837 21.1573C121.302 21.6036 121.767 22.0499 122.232 22.4404C122.456 22.6264 122.642 22.7751 122.791 22.8681L123.051 22.6078C123.386 22.273 123.721 22.0127 124.055 21.8453C124.669 21.4548 125.618 21.3618 126.455 21.7152C126.752 21.8267 127.05 21.9941 127.366 22.2173L130.473 24.4116C130.9 24.7091 131.235 25.1182 131.458 25.5831C131.644 26.048 131.719 26.4571 131.719 26.8849C131.719 27.4427 131.588 27.982 131.347 28.5027C131.105 28.9862 130.826 29.4139 130.491 29.8044C129.896 30.4553 129.208 30.9388 128.464 31.2549C127.72 31.5711 126.92 31.7198 126.101 31.7198ZM115.034 13.0866C114.923 13.0866 114.551 13.0866 114.086 13.5515C113.732 13.8862 113.49 14.2396 113.323 14.6301C113.156 15.0206 113.081 15.4669 113.081 15.9132C113.081 16.6942 113.267 17.5311 113.639 18.4237C114.03 19.3535 114.606 20.3391 115.313 21.3246C116.039 22.3102 116.857 23.2958 117.769 24.207C118.68 25.0996 119.647 25.9365 120.651 26.6803C121.619 27.3869 122.605 27.9448 123.59 28.3725C125.004 28.9862 126.306 29.135 127.366 28.6887C127.738 28.5399 128.073 28.2796 128.408 27.9448C128.575 27.7589 128.706 27.5729 128.817 27.3312C128.873 27.201 128.91 27.0522 128.91 26.922C128.91 26.8849 128.91 26.8291 128.854 26.7175L125.748 24.5603C125.618 24.4674 125.488 24.393 125.376 24.3558C125.302 24.393 125.19 24.4488 124.986 24.6533L124.279 25.36C123.739 25.8993 122.884 26.048 122.195 25.8063L121.861 25.6575C121.433 25.4344 120.949 25.0996 120.41 24.6347C119.889 24.1884 119.387 23.7235 118.847 23.2028C118.327 22.6636 117.862 22.1615 117.415 21.6408C116.931 21.0643 116.597 20.5994 116.373 20.2089L116.169 19.7254C116.113 19.5394 116.094 19.3349 116.094 19.1489C116.094 18.6282 116.28 18.1633 116.634 17.7914L117.341 17.0661C117.545 16.8616 117.62 16.75 117.657 16.6757C117.601 16.5455 117.527 16.4339 117.434 16.3037L115.257 13.2354L115.034 13.0866Z" fill="#DFB6B2"/>
<path d="M231 41H211C205 41 201 37.4706 201 29.2353V12.7647C201 4.52941 205 1 211 1H231C237 1 241 4.52941 241 12.7647V29.2353C241 37.4706 237 41 231 41Z" stroke="#DFB6B2" stroke-width="2" stroke-miterlimit="10" stroke-linecap="round" stroke-linejoin="round"/>
<path d="M231 13.9412L224.74 19.8235C222.68 21.7529 219.3 21.7529 217.24 19.8235L211 13.9412" stroke="#DFB6B2" stroke-width="2" stroke-miterlimit="10" stroke-linecap="round" stroke-linejoin="round"/>
<path d="M25 15.6V21.4H30.2C30.6 21.4 30.8 21.8 30.8 22.2L30 26C30 26.2 29.6 26.4 29.4 26.4H25V41H19V26.6H15.6C15.2 26.6 15 26.4 15 26V22.2C15 21.8 15.2 21.6 15.6 21.6H19V15C19 11.6 21.6 9 25 9H30.4C30.8 9 31 9.2 31 9.6V14.4C31 14.8 30.8 15 30.4 15H25.6C25.2 15 25 15.2 25 15.6Z" stroke="#DFB6B2" stroke-width="2" stroke-miterlimit="10" stroke-linecap="round"/>
<path d="M27 41H15C5 41 1 37 1 27V15C1 5 5 1 15 1H27C37 1 41 5 41 15V27C41 37 37 41 27 41Z" stroke="#DFB6B2" stroke-width="2" stroke-linecap="round" stroke-linejoin="round"/>
</svg>
