<svg width="29" height="29" viewBox="0 0 29 29" fill="none" xmlns="http://www.w3.org/2000/svg">
<path d="M10.3398 17.4123C10.3398 19.0248 11.5773 20.3248 13.1149 20.3248H16.2524C17.5899 20.3248 18.6774 19.1873 18.6774 17.7873C18.6774 16.2623 18.0149 15.7248 17.0274 15.3748L11.9898 13.6248C11.0023 13.2748 10.3398 12.7373 10.3398 11.2123C10.3398 9.8123 11.4273 8.6748 12.7649 8.6748H15.9024C17.4399 8.6748 18.6774 9.9748 18.6774 11.5873" stroke="#2B124C" stroke-width="3" stroke-linecap="round" stroke-linejoin="round"/>
<path d="M14.5 7V22" stroke="#2B124C" stroke-width="3" stroke-linecap="round" stroke-linejoin="round"/>
<path d="M14.5 27C21.4035 27 27 21.4035 27 14.5C27 7.59644 21.4035 2 14.5 2C7.59644 2 2 7.59644 2 14.5C2 21.4035 7.59644 27 14.5 27Z" stroke="#2B124C" stroke-width="3" stroke-linecap="round" stroke-linejoin="round"/>
</svg>
