<svg width="25" height="25" viewBox="0 0 25 25" fill="none" xmlns="http://www.w3.org/2000/svg">
<path d="M19.4875 19.054C19.5843 19.1508 19.6612 19.2658 19.7136 19.3924C19.766 19.5189 19.793 19.6545 19.793 19.7915C19.793 19.9285 19.766 20.0641 19.7136 20.1906C19.6612 20.3172 19.5843 20.4321 19.4875 20.529C19.3906 20.6258 19.2757 20.7027 19.1491 20.7551C19.0226 20.8075 18.887 20.8345 18.75 20.8345C18.613 20.8345 18.4774 20.8075 18.3509 20.7551C18.2243 20.7027 18.1093 20.6258 18.0125 20.529L10.7208 13.2373C10.6238 13.1406 10.5468 13.0256 10.4943 12.8991C10.4418 12.7725 10.4148 12.6368 10.4148 12.4998C10.4148 12.3628 10.4418 12.2271 10.4943 12.1006C10.5468 11.974 10.6238 11.8591 10.7208 11.7623L18.0125 4.47066C18.1093 4.37381 18.2243 4.29698 18.3509 4.24457C18.4774 4.19215 18.613 4.16518 18.75 4.16518C18.887 4.16518 19.0226 4.19215 19.1491 4.24457C19.2757 4.29698 19.3906 4.37381 19.4875 4.47066C19.5843 4.56751 19.6612 4.68249 19.7136 4.80902C19.766 4.93557 19.793 5.07119 19.793 5.20816C19.793 5.34512 19.766 5.48075 19.7136 5.60729C19.6612 5.73383 19.5843 5.84881 19.4875 5.94566L12.9312 12.4998L19.4875 19.054ZM4.16665 19.7915C4.16665 20.0678 4.2764 20.3327 4.47175 20.5281C4.6671 20.7234 4.93205 20.8332 5.20832 20.8332C5.48459 20.8332 5.74954 20.7234 5.94489 20.5281C6.14024 20.3327 6.24999 20.0678 6.24999 19.7915L6.24999 5.20816C6.24999 4.93189 6.14024 4.66694 5.94489 4.47159C5.74954 4.27624 5.48459 4.16649 5.20832 4.16649C4.93205 4.16649 4.6671 4.27624 4.47175 4.47159C4.2764 4.66694 4.16665 4.93189 4.16665 5.20816L4.16665 19.7915Z" fill="#2B124C"/>
</svg>
