<svg width="25" height="25" viewBox="0 0 25 25" fill="none" xmlns="http://www.w3.org/2000/svg">
<path d="M19.4875 19.0541C19.5843 19.151 19.6612 19.2659 19.7136 19.3925C19.766 19.519 19.793 19.6546 19.793 19.7916C19.793 19.9286 19.766 20.0642 19.7136 20.1907C19.6612 20.3173 19.5843 20.4323 19.4875 20.5291C19.3906 20.626 19.2757 20.7028 19.1491 20.7552C19.0226 20.8076 18.887 20.8346 18.75 20.8346C18.613 20.8346 18.4774 20.8076 18.3509 20.7552C18.2243 20.7028 18.1093 20.626 18.0125 20.5291L10.7208 13.2374C10.6238 13.1407 10.5468 13.0257 10.4943 12.8992C10.4418 12.7726 10.4148 12.637 10.4148 12.4999C10.4148 12.3629 10.4418 12.2273 10.4943 12.1007C10.5468 11.9742 10.6238 11.8592 10.7208 11.7624L18.0125 4.47078C18.1093 4.37393 18.2243 4.2971 18.3509 4.24469C18.4774 4.19227 18.613 4.1653 18.75 4.1653C18.887 4.1653 19.0226 4.19227 19.1491 4.24469C19.2757 4.2971 19.3906 4.37393 19.4875 4.47078C19.5843 4.56763 19.6612 4.68261 19.7136 4.80915C19.766 4.93569 19.793 5.07131 19.793 5.20828C19.793 5.34525 19.766 5.48087 19.7136 5.60741C19.6612 5.73395 19.5843 5.84893 19.4875 5.94578L12.9312 12.4999L19.4875 19.0541ZM4.16665 19.7916C4.16665 20.0679 4.2764 20.3328 4.47175 20.5282C4.6671 20.7235 4.93205 20.8333 5.20832 20.8333C5.48459 20.8333 5.74954 20.7235 5.94489 20.5282C6.14024 20.3328 6.24999 20.0679 6.24999 19.7916L6.24999 5.20828C6.24999 4.93201 6.14024 4.66706 5.94489 4.47171C5.74954 4.27636 5.48459 4.16661 5.20832 4.16661C4.93205 4.16661 4.6671 4.27636 4.47175 4.47171C4.2764 4.66706 4.16665 4.93201 4.16665 5.20828L4.16665 19.7916Z" fill="#2B124C"/>
</svg>
