<svg width="25" height="25" viewBox="0 0 25 25" fill="none" xmlns="http://www.w3.org/2000/svg">
<path d="M5.51251 5.94601C5.41566 5.84916 5.33884 5.73418 5.28642 5.60764C5.23401 5.4811 5.20703 5.34548 5.20703 5.20851C5.20703 5.07154 5.23401 4.93592 5.28642 4.80938C5.33884 4.68284 5.41566 4.56786 5.51251 4.47101C5.60936 4.37416 5.72434 4.29733 5.85088 4.24492C5.97742 4.1925 6.11305 4.16553 6.25001 4.16553C6.38698 4.16553 6.52261 4.1925 6.64915 4.24492C6.77569 4.29733 6.89066 4.37416 6.98751 4.47101L14.2792 11.7627C14.3762 11.8594 14.4532 11.9744 14.5057 12.1009C14.5582 12.2275 14.5852 12.3632 14.5852 12.5002C14.5852 12.6372 14.5582 12.7729 14.5057 12.8994C14.4532 13.026 14.3762 13.1409 14.2792 13.2377L6.98751 20.5293C6.89066 20.6262 6.77569 20.703 6.64915 20.7554C6.52261 20.8078 6.38698 20.8348 6.25001 20.8348C6.11305 20.8348 5.97742 20.8078 5.85088 20.7554C5.72434 20.703 5.60936 20.6262 5.51251 20.5293C5.41566 20.4325 5.33884 20.3175 5.28642 20.191C5.23401 20.0644 5.20703 19.9288 5.20703 19.7918C5.20703 19.6549 5.23401 19.5192 5.28642 19.3927C5.33884 19.2662 5.41566 19.1512 5.51251 19.0543L12.0688 12.5002L5.51251 5.94601ZM20.8333 5.20851C20.8333 4.93224 20.7236 4.66729 20.5282 4.47194C20.3329 4.27659 20.0679 4.16684 19.7917 4.16684C19.5154 4.16684 19.2505 4.27659 19.0551 4.47194C18.8598 4.66729 18.75 4.93224 18.75 5.20851V19.7918C18.75 20.0681 18.8598 20.3331 19.0551 20.5284C19.2505 20.7238 19.5154 20.8335 19.7917 20.8335C20.0679 20.8335 20.3329 20.7238 20.5282 20.5284C20.7236 20.3331 20.8333 20.0681 20.8333 19.7918V5.20851Z" fill="#2B124C"/>
</svg>
