<svg width="25" height="25" viewBox="0 0 25 25" fill="none" xmlns="http://www.w3.org/2000/svg">
<path d="M5.51251 5.94589C5.41566 5.84904 5.33884 5.73406 5.28642 5.60752C5.23401 5.48098 5.20703 5.34535 5.20703 5.20839C5.20703 5.07142 5.23401 4.9358 5.28642 4.80926C5.33884 4.68272 5.41566 4.56774 5.51251 4.47089C5.60936 4.37404 5.72434 4.29721 5.85088 4.2448C5.97742 4.19238 6.11305 4.16541 6.25001 4.16541C6.38698 4.16541 6.52261 4.19238 6.64915 4.2448C6.77569 4.29721 6.89066 4.37404 6.98751 4.47089L14.2792 11.7626C14.3762 11.8593 14.4532 11.9743 14.5057 12.1008C14.5582 12.2274 14.5852 12.363 14.5852 12.5001C14.5852 12.6371 14.5582 12.7727 14.5057 12.8993C14.4532 13.0258 14.3762 13.1408 14.2792 13.2376L6.98751 20.5292C6.89066 20.6261 6.77569 20.7029 6.64915 20.7553C6.52261 20.8077 6.38698 20.8347 6.25001 20.8347C6.11305 20.8347 5.97742 20.8077 5.85088 20.7553C5.72434 20.7029 5.60936 20.6261 5.51251 20.5292C5.41566 20.4324 5.33884 20.3174 5.28642 20.1909C5.23401 20.0643 5.20703 19.9287 5.20703 19.7917C5.20703 19.6548 5.23401 19.5191 5.28642 19.3926C5.33884 19.266 5.41566 19.1511 5.51251 19.0542L12.0688 12.5001L5.51251 5.94589ZM20.8333 5.20839C20.8333 4.93212 20.7236 4.66717 20.5282 4.47182C20.3329 4.27647 20.0679 4.16672 19.7917 4.16672C19.5154 4.16672 19.2505 4.27647 19.0551 4.47182C18.8598 4.66717 18.75 4.93212 18.75 5.20839V19.7917C18.75 20.068 18.8598 20.3329 19.0551 20.5283C19.2505 20.7236 19.5154 20.8334 19.7917 20.8334C20.0679 20.8334 20.3329 20.7236 20.5282 20.5283C20.7236 20.3329 20.8333 20.068 20.8333 19.7917V5.20839Z" fill="#2B124C"/>
</svg>
