<svg width="30" height="30" viewBox="0 0 30 30" fill="none" xmlns="http://www.w3.org/2000/svg">
<path d="M14.3037 28.2543C6.41923 28.2543 0 21.9143 0 14.1271C0 6.33998 6.41923 0 14.3037 0C22.1882 0 28.6074 6.33998 28.6074 14.1271C28.6074 21.9143 22.1882 28.2543 14.3037 28.2543ZM14.3037 2.06739C7.56353 2.06739 2.09323 7.48394 2.09323 14.1271C2.09323 20.7703 7.56353 26.1869 14.3037 26.1869C21.0439 26.1869 26.5142 20.7703 26.5142 14.1271C26.5142 7.48394 21.0439 2.06739 14.3037 2.06739Z" fill="#2B124C"/>
<path d="M28.9569 29.6324C28.6918 29.6324 28.4266 29.5359 28.2173 29.3292L25.4263 26.5727C25.0216 26.173 25.0216 25.5114 25.4263 25.1117C25.831 24.712 26.5008 24.712 26.9055 25.1117L29.6965 27.8682C30.1012 28.2679 30.1012 28.9295 29.6965 29.3292C29.4872 29.5359 29.222 29.6324 28.9569 29.6324Z" fill="#2B124C"/>
</svg>
