<svg width="177" height="35" viewBox="0 0 177 35" fill="none" xmlns="http://www.w3.org/2000/svg">
<path d="M20.6786 2.52991L23.7838 8.74042C24.2023 9.59932 25.3254 10.4142 26.2724 10.5904L31.8883 11.5153C35.4781 12.1099 36.315 14.7088 33.7383 17.3075L29.3557 21.6901C28.6289 22.4169 28.2105 23.8484 28.4527 24.8834L29.708 30.3011C30.6991 34.5736 28.4087 36.2473 24.6427 34.001L19.3792 30.8737C18.4322 30.3011 16.8466 30.3011 15.8996 30.8737L10.6361 34.001C6.87 36.2253 4.5796 34.5736 5.57064 30.3011L6.82595 24.8834C7.02416 23.8263 6.60572 22.3948 5.87896 21.6681L1.49637 17.2855C-1.08033 14.7088 -0.243457 12.1099 3.3463 11.4933L8.9623 10.5683C9.90929 10.4142 11.0325 9.57729 11.4509 8.71839L14.5562 2.50788C16.2519 -0.839623 18.9828 -0.839623 20.6786 2.52991Z" fill="#FFE221"/>
<path d="M55.9132 2.52991L59.0184 8.74042C59.4369 9.59932 60.5601 10.4142 61.5071 10.5904L67.1229 11.5153C70.7127 12.1099 71.5496 14.7088 68.9729 17.3075L64.5903 21.6901C63.8635 22.4169 63.4451 23.8484 63.6873 24.8834L64.9427 30.3011C65.9337 34.5736 63.6433 36.2473 59.8774 34.001L54.6138 30.8737C53.6668 30.3011 52.0812 30.3011 51.1342 30.8737L45.8707 34.001C42.1046 36.2253 39.8142 34.5736 40.8053 30.3011L42.0606 24.8834C42.2588 23.8263 41.8403 22.3948 41.1136 21.6681L36.731 17.2855C34.1543 14.7088 34.9912 12.1099 38.5809 11.4933L44.1969 10.5683C45.1439 10.4142 46.2671 9.57729 46.6855 8.71839L49.7908 2.50788C51.4866 -0.839623 54.2174 -0.839623 55.9132 2.52991Z" fill="#FFE221"/>
<path d="M91.1478 2.52991L94.2531 8.74042C94.6715 9.59932 95.7947 10.4142 96.7417 10.5904L102.358 11.5153C105.947 12.1099 106.784 14.7088 104.208 17.3075L99.8249 21.6901C99.0981 22.4169 98.6797 23.8484 98.922 24.8834L100.177 30.3011C101.168 34.5736 98.8779 36.2473 95.112 34.001L89.8485 30.8737C88.9015 30.3011 87.3158 30.3011 86.3688 30.8737L81.1053 34.001C77.3392 36.2253 75.0488 34.5736 76.0399 30.3011L77.2952 24.8834C77.4934 23.8263 77.075 22.3948 76.3482 21.6681L71.9656 17.2855C69.3889 14.7088 70.2258 12.1099 73.8155 11.4933L79.4315 10.5683C80.3785 10.4142 81.5017 9.57729 81.9201 8.71839L85.0254 2.50788C86.7212 -0.839623 89.452 -0.839623 91.1478 2.52991Z" fill="#FFE221"/>
<path d="M126.382 2.52991L129.488 8.74042C129.906 9.59932 131.029 10.4142 131.976 10.5904L137.592 11.5153C141.182 12.1099 142.019 14.7088 139.442 17.3075L135.06 21.6901C134.333 22.4169 133.914 23.8484 134.157 24.8834L135.412 30.3011C136.403 34.5736 134.113 36.2473 130.347 34.001L125.083 30.8737C124.136 30.3011 122.55 30.3011 121.603 30.8737L116.34 34.001C112.574 36.2253 110.283 34.5736 111.274 30.3011L112.53 24.8834C112.728 23.8263 112.31 22.3948 111.583 21.6681L107.2 17.2855C104.624 14.7088 105.46 12.1099 109.05 11.4933L114.666 10.5683C115.613 10.4142 116.736 9.57729 117.155 8.71839L120.26 2.50788C121.956 -0.839623 124.687 -0.839623 126.382 2.52991Z" fill="#FFE221"/>
<path d="M161.617 2.52991L164.722 8.74042C165.141 9.59932 166.264 10.4142 167.211 10.5904L172.827 11.5153C176.417 12.1099 177.253 14.7088 174.677 17.3075L170.294 21.6901C169.567 22.4169 169.149 23.8484 169.391 24.8834L170.647 30.3011C171.638 34.5736 169.347 36.2473 165.581 34.001L160.318 30.8737C159.371 30.3011 157.785 30.3011 156.838 30.8737L151.575 34.001C147.808 36.2253 145.518 34.5736 146.509 30.3011L147.764 24.8834C147.963 23.8263 147.544 22.3948 146.817 21.6681L142.435 17.2855C139.858 14.7088 140.695 12.1099 144.285 11.4933L149.901 10.5683C150.848 10.4142 151.971 9.57729 152.389 8.71839L155.495 2.50788C157.19 -0.839623 159.921 -0.839623 161.617 2.52991Z" fill="#FFE221"/>
</svg>
