<svg width="40" height="30" viewBox="0 0 40 30" fill="none" xmlns="http://www.w3.org/2000/svg">
<path d="M38.5 10.0175C33.88 3.66024 27.12 0 20 0C16.44 0 12.98 0.910683 9.82 2.60946C6.66 4.32574 3.82 6.83012 1.5 10.0175C-0.5 12.7671 -0.5 17.2329 1.5 19.9825C6.12 26.3573 12.88 30 20 30C23.56 30 27.02 29.0893 30.18 27.3905C33.34 25.6743 36.18 23.1699 38.5 19.9825C40.5 17.2504 40.5 12.7671 38.5 10.0175ZM20 22.0841C15.52 22.0841 11.92 18.9142 11.92 15.0088C11.92 11.1033 15.52 7.93345 20 7.93345C24.48 7.93345 28.08 11.1033 28.08 15.0088C28.08 18.9142 24.48 22.0841 20 22.0841Z" fill="#2B124C"/>
<path d="M19.9968 10.0016C16.8568 10.0016 14.2969 12.2432 14.2969 15.0103C14.2969 17.7599 16.8568 20.0015 19.9968 20.0015C23.1368 20.0015 25.7168 17.7599 25.7168 15.0103C25.7168 12.2607 23.1368 10.0016 19.9968 10.0016Z" fill="#2B124C"/>
</svg>
