<svg width="64" height="18" viewBox="0 0 64 18" fill="none" xmlns="http://www.w3.org/2000/svg">
<path d="M8.66667 2C5 2 2 5 2 8.66667C2 12.3333 5 15.3333 8.66667 15.3333C12.3333 15.3333 15.3333 12.3333 15.3333 8.66667C15.3333 5 12.3333 2 8.66667 2Z" stroke="#FBE4D8" stroke-width="4"/>
<path d="M55.3333 2C51.6667 2 48.6667 5 48.6667 8.66667C48.6667 12.3333 51.6667 15.3333 55.3333 15.3333C59 15.3333 62 12.3333 62 8.66667C62 5 59 2 55.3333 2Z" stroke="#FBE4D8" stroke-width="4"/>
<path d="M32 2C28.3333 2 25.3333 5 25.3333 8.66667C25.3333 12.3333 28.3333 15.3333 32 15.3333C35.6667 15.3333 38.6667 12.3333 38.6667 8.66667C38.6667 5 35.6667 2 32 2Z" stroke="#FBE4D8" stroke-width="4"/>
</svg>
