<svg width="31" height="30" viewBox="0 0 31 30" fill="none" xmlns="http://www.w3.org/2000/svg">
<path d="M18.1268 2.16849L20.7885 7.49178C21.1471 8.22798 22.1099 8.92643 22.9216 9.07745L27.7352 9.87028C30.8121 10.38 31.5295 12.6075 29.3209 14.835L25.5643 18.5915C24.9414 19.2144 24.5827 20.4414 24.7904 21.3287L25.8664 25.9724C26.7158 29.6345 24.7526 31.0692 21.5247 29.1437L17.0131 26.4632C16.2014 25.9724 14.8423 25.9724 14.0305 26.4632L9.51896 29.1437C6.29091 31.0503 4.32771 29.6345 5.17718 25.9724L6.25316 21.3287C6.42305 20.4226 6.06439 19.1956 5.44145 18.5726L1.68494 14.8161C-0.523657 12.6075 0.193666 10.38 3.27061 9.8514L8.08432 9.05857C8.89602 8.92643 9.85875 8.20911 10.2174 7.47291L12.8791 2.14962C14.3326 -0.719677 16.6733 -0.719677 18.1268 2.16849Z" fill="#FFE221"/>
</svg>
