<svg width="23" height="23" viewBox="0 0 23 23" fill="none" xmlns="http://www.w3.org/2000/svg">
<path d="M13.4912 2.44418L15.2656 5.99288C15.5075 6.48688 16.1527 6.9607 16.6971 7.05144L19.9132 7.58576C21.9698 7.92853 22.4537 9.42059 20.9717 10.8925L18.4715 13.3927C18.0481 13.8161 17.8162 14.6327 17.9473 15.2175L18.663 18.3125C19.2276 20.7623 17.9271 21.71 15.7596 20.4296L12.7452 18.6452C12.2008 18.3226 11.3035 18.3226 10.749 18.6452L7.73463 20.4296C5.57718 21.71 4.26658 20.7522 4.83115 18.3125L5.54694 15.2175C5.678 14.6327 5.44612 13.8161 5.0227 13.3927L2.52248 10.8925C1.05058 9.42059 1.52441 7.92853 3.58104 7.58576L6.79705 7.05144C7.33137 6.9607 7.97659 6.48688 8.21855 5.99288L9.99292 2.44418C10.9608 0.518607 12.5335 0.518607 13.4912 2.44418Z" stroke="#FFE221" stroke-width="2" stroke-linecap="round" stroke-linejoin="round"/>
</svg>
