<svg width="20" height="20" viewBox="0 0 20 20" fill="none" xmlns="http://www.w3.org/2000/svg">
<path d="M11.7376 1.43603L13.5003 4.96126C13.7378 5.4488 14.3753 5.91133 14.9129 6.01133L18.1006 6.53637C20.1382 6.87389 20.6132 8.34905 19.1506 9.82414L16.663 12.3118C16.2504 12.7243 16.0129 13.5369 16.1504 14.1244L16.863 17.1996C17.4255 19.6248 16.1254 20.5748 13.9878 19.2998L11.0001 17.5246C10.4626 17.1996 9.5625 17.1996 9.02497 17.5246L6.03727 19.2998C3.89957 20.5623 2.59949 19.6248 3.16202 17.1996L3.87457 14.1244C3.98708 13.5244 3.74956 12.7118 3.33703 12.2993L0.849372 9.81164C-0.613223 8.34905 -0.138192 6.87389 1.89944 6.52387L5.08721 5.99883C5.62475 5.91133 6.26229 5.4363 6.4998 4.94876L8.26242 1.42353C9.22498 -0.47659 10.7751 -0.47659 11.7376 1.43603Z" fill="#FFE221"/>
</svg>
