<svg width="31" height="30" viewBox="0 0 31 30" fill="none" xmlns="http://www.w3.org/2000/svg">
<path d="M17.9254 2.16849L20.5871 7.49178C20.9457 8.22798 21.9085 8.92643 22.7202 9.07745L27.5338 9.87028C30.6107 10.38 31.328 12.6075 29.1194 14.835L25.3629 18.5915C24.74 19.2144 24.3813 20.4414 24.589 21.3287L25.665 25.9724C26.5144 29.6345 24.5512 31.0692 21.3233 29.1437L16.8117 26.4632C16 25.9724 14.6408 25.9724 13.8291 26.4632L9.31755 29.1437C6.0895 31.0503 4.1263 29.6345 4.97576 25.9724L6.05174 21.3287C6.22164 20.4226 5.86297 19.1956 5.24003 18.5726L1.48353 14.8161C-0.725073 12.6075 -0.00774956 10.38 3.06919 9.8514L7.8829 9.05857C8.69461 8.92643 9.65733 8.20911 10.016 7.47291L12.6776 2.14962C14.1312 -0.719677 16.4719 -0.719677 17.9254 2.16849Z" fill="#FFE221"/>
</svg>
