<svg width="26" height="25" viewBox="0 0 26 25" fill="none" xmlns="http://www.w3.org/2000/svg">
<path d="M14.8471 2.65049L16.8749 6.70615C17.1514 7.27072 17.8888 7.81223 18.511 7.91593L22.1864 8.52658C24.5369 8.91832 25.0899 10.6235 23.3962 12.3057L20.5388 15.1631C20.0549 15.647 19.7899 16.5803 19.9397 17.2485L20.7577 20.7857C21.4029 23.5855 19.9166 24.6685 17.4395 23.2053L13.9945 21.1659C13.3723 20.7972 12.3468 20.7972 11.7132 21.1659L8.26812 23.2053C5.80246 24.6685 4.30463 23.574 4.94985 20.7857L5.7679 17.2485C5.91768 16.5803 5.65268 15.647 5.16876 15.1631L2.31137 12.3057C0.629195 10.6235 1.17072 8.91832 3.52115 8.52658L7.19659 7.91593C7.80725 7.81223 8.54464 7.27072 8.82116 6.70615L10.849 2.65049C11.9551 0.449837 13.7525 0.449837 14.8471 2.65049Z" fill="#FFE221" stroke="#FFE221" stroke-width="2" stroke-linecap="round" stroke-linejoin="round"/>
</svg>
