<svg width="23" height="23" viewBox="0 0 23 23" fill="none" xmlns="http://www.w3.org/2000/svg">
<path d="M13.4913 2.44418L15.2657 5.99288C15.5076 6.48688 16.1529 6.9607 16.6973 7.05144L19.9133 7.58576C21.9699 7.92853 22.4538 9.42059 20.9718 10.8925L18.4716 13.3927C18.0482 13.8161 17.8163 14.6327 17.9474 15.2175L18.6632 18.3125C19.2277 20.7623 17.9272 21.71 15.7597 20.4296L12.7453 18.6452C12.2009 18.3226 11.3036 18.3226 10.7492 18.6452L7.73475 20.4296C5.57731 21.71 4.26671 20.7522 4.83127 18.3125L5.54706 15.2175C5.67812 14.6327 5.44625 13.8161 5.02282 13.3927L2.5226 10.8925C1.0507 9.42059 1.52453 7.92853 3.58116 7.58576L6.79717 7.05144C7.33149 6.9607 7.97671 6.48688 8.21867 5.99288L9.99305 2.44418C10.9609 0.518607 12.5336 0.518607 13.4913 2.44418Z" stroke="#FFE221" stroke-width="2" stroke-linecap="round" stroke-linejoin="round"/>
</svg>
