<svg width="31" height="30" viewBox="0 0 31 30" fill="none" xmlns="http://www.w3.org/2000/svg">
<path d="M17.7245 2.16849L20.3861 7.49178C20.7448 8.22798 21.7075 8.92643 22.5192 9.07745L27.3328 9.87028C30.4098 10.38 31.1271 12.6075 28.9185 14.835L25.162 18.5915C24.5391 19.2144 24.1804 20.4414 24.3881 21.3287L25.464 25.9724C26.3135 29.6345 24.3503 31.0692 21.1223 29.1437L16.6108 26.4632C15.7991 25.9724 14.4399 25.9724 13.6282 26.4632L9.11662 29.1437C5.88857 31.0503 3.92537 29.6345 4.77483 25.9724L5.85082 21.3287C6.02071 20.4226 5.66205 19.1956 5.03911 18.5726L1.2826 14.8161C-0.926001 12.6075 -0.208677 10.38 2.86826 9.8514L7.68197 9.05857C8.49368 8.92643 9.4564 8.20911 9.81506 7.47291L12.4767 2.14962C13.9302 -0.719677 16.271 -0.719677 17.7245 2.16849Z" fill="#FFE221"/>
</svg>
