<svg width="34" height="33" viewBox="0 0 34 33" fill="none" xmlns="http://www.w3.org/2000/svg">
<path d="M19.7369 3.16627L22.3984 8.48932C22.7613 9.23032 23.7292 9.94106 24.5458 10.0772L29.3698 10.8786C32.4547 11.3928 33.1806 13.6309 30.9576 15.8387L27.2073 19.5891C26.5722 20.2242 26.2243 21.4491 26.4209 22.3262L27.4946 26.9687C28.3415 30.6435 26.3907 32.065 23.1394 30.1444L18.6178 27.4678C17.8012 26.9839 16.4553 26.9839 15.6236 27.4678L11.102 30.1444C7.86584 32.065 5.89994 30.6283 6.74679 26.9687L7.82047 22.3262C8.01706 21.4491 7.66925 20.2242 7.03411 19.5891L3.28378 15.8387C1.07593 13.6309 1.78667 11.3928 4.87162 10.8786L9.69563 10.0772C10.4971 9.94106 11.4649 9.23032 11.8279 8.48932L14.4894 3.16627C15.9412 0.27791 18.3003 0.27791 19.7369 3.16627Z" stroke="#FFE221" stroke-width="2" stroke-linecap="round" stroke-linejoin="round"/>
</svg>
