<svg width="27" height="25" viewBox="0 0 27 25" fill="none" xmlns="http://www.w3.org/2000/svg">
<path d="M15.5138 2.65049L17.5416 6.70615C17.8182 7.27072 18.5556 7.81223 19.1777 7.91593L22.8532 8.52658C25.2036 8.91832 25.7567 10.6235 24.063 12.3057L21.2056 15.1631C20.7216 15.647 20.4566 16.5803 20.6064 17.2485L21.4245 20.7857C22.0697 23.5855 20.5834 24.6685 18.1062 23.2053L14.6612 21.1659C14.039 20.7972 13.0136 20.7972 12.3799 21.1659L8.93486 23.2053C6.46921 24.6685 4.97138 23.574 5.6166 20.7857L6.43464 17.2485C6.58443 16.5803 6.31943 15.647 5.83551 15.1631L2.97812 12.3057C1.29594 10.6235 1.83747 8.91832 4.1879 8.52658L7.86334 7.91593C8.47399 7.81223 9.21139 7.27072 9.48791 6.70615L11.5158 2.65049C12.6219 0.449837 14.4192 0.449837 15.5138 2.65049Z" fill="#FFE221" stroke="#FFE221" stroke-width="2" stroke-linecap="round" stroke-linejoin="round"/>
</svg>
