<svg width="24" height="22" viewBox="0 0 24 22" fill="none" xmlns="http://www.w3.org/2000/svg">
<path d="M13.7276 2.43234L15.4875 5.95195C15.7274 6.4419 16.3674 6.91184 16.9073 7.00183L20.0969 7.53177C22.1367 7.87173 22.6167 9.35155 21.1468 10.8114L18.6671 13.2911C18.2471 13.7111 18.0172 14.521 18.1472 15.1009L18.8571 18.1706C19.417 20.6003 18.1272 21.5402 15.9774 20.2703L12.9877 18.5005C12.4478 18.1806 11.5579 18.1806 11.008 18.5005L8.01826 20.2703C5.8785 21.5402 4.57864 20.5903 5.13858 18.1706L5.8485 15.1009C5.97849 14.521 5.74851 13.7111 5.32856 13.2911L2.84884 10.8114C1.389 9.35155 1.85895 7.87173 3.89872 7.53177L7.08836 7.00183C7.6183 6.91184 8.25823 6.4419 8.4982 5.95195L10.258 2.43234C11.2179 0.522554 12.7778 0.522554 13.7276 2.43234Z" stroke="#FFE221" stroke-width="2" stroke-linecap="round" stroke-linejoin="round"/>
</svg>
