<svg width="31" height="30" viewBox="0 0 31 30" fill="none" xmlns="http://www.w3.org/2000/svg">
<path d="M18.1267 2.16849L20.7884 7.49178C21.147 8.22798 22.1097 8.92643 22.9215 9.07745L27.7351 9.87028C30.812 10.38 31.5293 12.6075 29.3207 14.835L25.5642 18.5915C24.9413 19.2144 24.5826 20.4414 24.7903 21.3287L25.8663 25.9724C26.7157 29.6345 24.7525 31.0692 21.5246 29.1437L17.013 26.4632C16.2013 25.9724 14.8421 25.9724 14.0304 26.4632L9.51884 29.1437C6.29079 31.0503 4.32759 29.6345 5.17705 25.9724L6.25304 21.3287C6.42293 20.4226 6.06427 19.1956 5.44133 18.5726L1.68482 14.8161C-0.523779 12.6075 0.193544 10.38 3.27048 9.8514L8.08419 9.05857C8.8959 8.92643 9.85862 8.20911 10.2173 7.47291L12.8789 2.14962C14.3325 -0.719677 16.6732 -0.719677 18.1267 2.16849Z" fill="#FFE221"/>
</svg>
