<svg width="24" height="23" viewBox="0 0 24 23" fill="none" xmlns="http://www.w3.org/2000/svg">
<path d="M13.8246 2.44418L15.5989 5.99288C15.8409 6.48688 16.4861 6.9607 17.0305 7.05144L20.2465 7.58576C22.3032 7.92853 22.7871 9.42059 21.3051 10.8925L18.8049 13.3927C18.3814 13.8161 18.1496 14.6327 18.2806 15.2175L18.9964 18.3125C19.561 20.7623 18.2605 21.71 16.0929 20.4296L13.0786 18.6452C12.5342 18.3226 11.6369 18.3226 11.0824 18.6452L8.06801 20.4296C5.91056 21.71 4.59996 20.7522 5.16452 18.3125L5.88031 15.2175C6.01137 14.6327 5.7795 13.8161 5.35607 13.3927L2.85585 10.8925C1.38395 9.42059 1.85778 7.92853 3.91441 7.58576L7.13042 7.05144C7.66474 6.9607 8.30996 6.48688 8.55192 5.99288L10.3263 2.44418C11.2941 0.518607 12.8668 0.518607 13.8246 2.44418Z" fill="#FFE221" stroke="#FFE221" stroke-width="2" stroke-linecap="round" stroke-linejoin="round"/>
</svg>
