<svg width="26" height="25" viewBox="0 0 26 25" fill="none" xmlns="http://www.w3.org/2000/svg">
<path d="M15.371 2.65049L17.3988 6.70615C17.6753 7.27072 18.4127 7.81223 19.0349 7.91593L22.7104 8.52658C25.0608 8.91832 25.6138 10.6235 23.9201 12.3057L21.0627 15.1631C20.5788 15.647 20.3138 16.5803 20.4636 17.2485L21.2817 20.7857C21.9269 23.5855 20.4406 24.6685 17.9634 23.2053L14.5184 21.1659C13.8962 20.7972 12.8708 20.7972 12.2371 21.1659L8.79204 23.2053C6.32639 24.6685 4.82856 23.574 5.47378 20.7857L6.29182 17.2485C6.4416 16.5803 6.1766 15.647 5.69269 15.1631L2.8353 12.3057C1.15312 10.6235 1.69464 8.91832 4.04508 8.52658L7.72052 7.91593C8.33117 7.81223 9.06856 7.27072 9.34509 6.70615L11.3729 2.65049C12.479 0.449837 14.2764 0.449837 15.371 2.65049Z" fill="#FFE221" stroke="#FFE221" stroke-width="2" stroke-linecap="round" stroke-linejoin="round"/>
</svg>
